<svg width="33" height="30" viewBox="0 0 33 30" fill="none" xmlns="http://www.w3.org/2000/svg">
<g clip-path="url(#clip0_34_4611)">
<path d="M4.61321 16.1572C3.92071 16.1572 3.28428 16.1779 2.6508 16.1493C2.3134 16.1335 1.94846 16.1 1.65041 15.9581C0.59986 15.4575 0.449359 14.1193 1.34449 13.2846C2.55539 12.1543 3.78693 11.0447 5.01061 9.92717C8.36688 6.86341 11.7231 3.79965 15.0804 0.736876C16.1595 -0.248573 16.8402 -0.245616 17.9271 0.745745C22.4097 4.83831 26.8952 8.92891 31.3699 13.0294C31.665 13.3004 31.9748 13.6167 32.1214 13.9764C32.5582 15.0495 31.7732 16.1 30.5289 16.1493C29.8423 16.1769 29.1537 16.1542 28.3835 16.1542C28.3835 16.371 28.3835 16.5602 28.3835 16.7484C28.3835 20.7247 28.3835 24.7 28.3835 28.6763C28.3835 29.7002 28.0874 29.9978 27.0713 29.9978C24.7429 29.9978 22.4146 29.9978 20.0863 29.9978C19.0455 29.9978 18.7603 29.7061 18.7603 28.6418C18.7603 26.3585 18.7603 24.0743 18.7603 21.791C18.7603 21.6136 18.7603 21.4372 18.7603 21.2362C17.2454 21.2362 15.7768 21.2362 14.2364 21.2362C14.2364 21.4086 14.2364 21.5821 14.2364 21.7545C14.2364 24.0871 14.2374 26.4206 14.2354 28.7532C14.2344 29.6716 13.9098 29.9958 12.995 29.9968C10.6342 29.9978 8.27245 29.9978 5.91165 29.9968C4.92012 29.9968 4.61321 29.6943 4.61321 28.7108C4.61223 24.7345 4.61321 20.7592 4.61321 16.7829C4.61321 16.5937 4.61321 16.4016 4.61321 16.1572Z" fill="white"/>
<path d="M22.0293 1.97236C22.0991 1.91915 22.1218 1.88564 22.1454 1.88564C24.1589 1.88269 26.1725 1.87283 28.1851 1.8886C28.6828 1.89254 29.032 2.22464 29.0379 2.73017C29.0605 4.56311 29.0468 6.39604 29.0468 8.36497C26.6525 6.18417 24.3448 4.08221 22.0293 1.97236Z" fill="white"/>
</g>
<defs>
<clipPath id="clip0_34_4611">
<rect width="31.4851" height="30" fill="white" transform="translate(0.757812)"/>
</clipPath>
</defs>
</svg>
