<svg width="33" height="30" viewBox="0 0 33 30" fill="none" xmlns="http://www.w3.org/2000/svg">
<g clip-path="url(#clip0_147_18592)">
<g clip-path="url(#clip1_147_18592)">
<path d="M26.2965 3.88114C27.6876 2.96765 28.9887 2.10814 30.2968 1.25761C30.4896 1.13268 30.6995 1.00576 30.9193 0.953785C31.466 0.824858 31.9706 1.2806 31.9906 1.91524C32.0086 2.51391 31.9956 3.11457 31.9956 3.71423C31.9956 7.36218 31.9966 11.0101 31.9956 14.6581C31.9956 15.6475 31.7158 15.9224 30.7135 15.9224C20.9022 15.9224 11.09 15.9224 1.27871 15.9224C0.278402 15.9224 0.00359142 15.6475 0.0015928 14.6531C0.000593486 14.2033 -0.00240445 13.7536 0.00259211 13.3038C0.0105866 12.5303 0.330367 12.2035 1.09384 12.1995C1.97424 12.1945 2.85463 12.1985 3.78999 12.1985C3.78999 9.69587 3.78999 7.22526 3.78999 4.72766C6.30426 4.72766 8.76357 4.72766 11.2778 4.72766C11.2778 7.19028 11.2778 9.66089 11.2778 12.1645C11.9374 12.1645 12.542 12.1645 13.1985 12.1645C13.1985 11.9736 13.1985 11.7957 13.1985 11.6168C13.1985 9.68487 13.2085 7.75196 13.1915 5.82005C13.1865 5.31333 13.3814 4.98452 13.7991 4.71067C15.5379 3.57031 17.2647 2.40997 18.9925 1.25062C19.3683 0.99876 19.739 0.797873 20.1917 1.05673C20.6264 1.30559 20.7114 1.71136 20.7024 2.1691C20.6924 2.6968 20.7004 3.22551 20.7004 3.83516C20.9132 3.70624 21.0661 3.62128 21.212 3.52434C22.3762 2.75077 23.5414 1.97721 24.7006 1.19665C25.0544 0.958782 25.4071 0.826857 25.8148 1.05673C26.2176 1.2826 26.3125 1.6444 26.3025 2.07316C26.2865 2.63884 26.2965 3.20452 26.2965 3.88114ZM22.5581 13.104C24.089 13.104 25.619 13.1079 27.1499 13.102C27.8095 13.1 28.1802 12.7521 28.1882 12.0965C28.2032 10.9152 28.2012 9.73385 28.1892 8.55251C28.1822 7.87789 27.8045 7.5061 27.1269 7.5041C24.082 7.4981 21.0371 7.4981 17.9932 7.5041C17.3147 7.5051 16.9359 7.87289 16.928 8.55051C16.914 9.71486 16.915 10.8792 16.927 12.0445C16.934 12.7601 17.2957 13.101 18.0172 13.102C19.5302 13.1069 21.0441 13.104 22.5581 13.104Z" fill="white"/>
<path d="M9.49305 17.8014C8.96442 22.1999 12.47 25.3341 16.0406 25.3091C19.5911 25.2852 23.0188 22.1559 22.5051 17.8483C22.5761 17.8314 22.65 17.7994 22.724 17.7994C24.19 17.7964 25.6559 17.7894 27.1219 17.7994C27.7945 17.8044 28.1762 18.1862 28.1922 18.8518C28.2062 19.4175 28.2082 19.9851 28.1912 20.5508C28.1722 21.1635 27.7795 21.6412 27.1899 21.5513C26.1566 21.3924 25.6789 21.8191 25.4741 22.7686C25.3961 23.1284 25.0524 23.4912 25.1083 23.802C25.1613 24.0998 25.577 24.3317 25.8318 24.5956C26.3535 25.1352 26.3535 25.61 25.8148 26.1547C25.0194 26.9612 24.2189 27.7618 23.4135 28.5583C22.8669 29.099 22.3732 29.089 21.8146 28.5453C21.0431 27.7938 21.0721 27.8907 20.0608 28.1865C19.0385 28.4854 18.6098 28.9791 18.7767 30.0565C18.8596 30.5902 18.4399 30.976 17.8903 30.985C16.6411 31.0059 15.391 31.0059 14.1429 30.983C13.5882 30.973 13.1326 30.5522 13.2205 30.0175C13.3994 28.9361 12.9347 28.4854 11.9454 28.1885C10.9261 27.8827 10.9541 27.7908 10.1896 28.5373C9.61497 29.098 9.12731 29.1 8.5547 28.5313C7.76324 27.7448 6.97379 26.9562 6.18933 26.1627C5.63171 25.599 5.63671 25.1362 6.19232 24.5706C6.9568 23.791 6.9568 23.791 6.5171 22.7826C6.45115 22.6307 6.38919 22.4757 6.32923 22.3208C6.04043 21.5772 6.04043 21.5772 5.22199 21.5763C4.08977 21.5753 3.79997 21.2884 3.79997 20.164C3.79997 19.7143 3.78898 19.2646 3.80397 18.8148C3.82395 18.2401 4.16472 17.8194 4.71034 17.8104C6.28926 17.7834 7.87017 17.8014 9.49305 17.8014Z" fill="white"/>
<path d="M20.5635 17.8323C20.9472 19.7242 20.1867 21.5712 18.6068 22.6356C17.0339 23.694 14.9623 23.695 13.3924 22.6386C11.8085 21.5722 11.045 19.7202 11.4317 17.8333C14.4606 17.8323 17.4956 17.8323 20.5635 17.8323Z" fill="white"/>
<path d="M11.2958 2.78576C8.77456 2.78576 6.31825 2.78576 3.81097 2.78576C3.81097 1.79432 3.78299 0.818867 3.82297 -0.154585C3.84395 -0.660301 4.24767 -0.988116 4.77531 -0.991115C6.63703 -1.00311 8.49975 -1.00411 10.3615 -0.991115C10.9011 -0.987117 11.2768 -0.645309 11.2888 -0.141593C11.3128 0.818867 11.2958 1.78133 11.2958 2.78576Z" fill="white"/>
<path d="M21.5838 9.42993C21.5838 10.0386 21.5838 10.6163 21.5838 11.2239C20.6564 11.2239 19.749 11.2239 18.8187 11.2239C18.8187 10.6213 18.8187 10.0446 18.8187 9.42993C19.726 9.42993 20.6304 9.42993 21.5838 9.42993Z" fill="white"/>
<path d="M23.5194 11.217C23.5194 10.5953 23.5194 10.0196 23.5194 9.41797C24.4358 9.41797 25.3272 9.41797 26.2585 9.41797C26.2585 10.0006 26.2585 10.5903 26.2585 11.217C25.3631 11.217 24.4588 11.217 23.5194 11.217Z" fill="white"/>
</g>
</g>
<defs>
<clipPath id="clip0_147_18592">
<rect width="31.4851" height="30" fill="white" transform="translate(0.757416)"/>
</clipPath>
<clipPath id="clip1_147_18592">
<rect width="32" height="32" fill="white" transform="translate(-0.000396729 -1)"/>
</clipPath>
</defs>
</svg>
