<svg width="33" height="30" viewBox="0 0 33 30" fill="none" xmlns="http://www.w3.org/2000/svg">
<g clip-path="url(#clip0_147_18566)">
<g clip-path="url(#clip1_147_18566)">
<path d="M7.42769 21.3105C7.48857 22.2025 7.48857 22.2025 8.27588 22.2025C12.2155 22.2025 16.1562 22.2015 20.0958 22.2045C20.4982 22.2045 21.0286 22.1218 21.0235 22.7195C21.0183 23.3122 20.4921 23.2304 20.0865 23.2304C15.923 23.2335 11.7594 23.2325 7.59588 23.2315C6.7931 23.2315 6.76524 23.209 6.57228 22.4109C5.65289 18.5935 4.72938 14.777 3.82341 10.9554C3.74086 10.609 3.60878 10.4833 3.24247 10.4956C2.41802 10.5232 1.5915 10.4976 0.764978 10.5068C0.370808 10.5119 -0.00788425 10.4639 -0.000661241 9.97854C0.00552991 9.52997 0.363585 9.47479 0.742277 9.47786C1.75763 9.48705 2.77401 9.51055 3.78729 9.46968C4.35069 9.44618 4.60349 9.67098 4.70977 10.189C4.87797 11.0044 5.09363 11.8096 5.25975 12.6261C5.34333 13.0379 5.51669 13.1891 5.97277 13.1881C10.9278 13.1686 15.8827 13.1758 20.8377 13.1758C20.975 13.1758 21.1132 13.1717 21.2505 13.1768C21.8489 13.1983 22.0471 13.513 21.7747 14.0535C21.1143 15.3615 20.4394 16.6622 19.7687 17.9661C19.293 18.8898 18.7936 19.8023 18.3458 20.7393C18.1374 21.1766 17.8453 21.3197 17.3758 21.3176C14.2617 21.3043 11.1475 21.3105 8.03339 21.3105C7.83321 21.3105 7.632 21.3105 7.42769 21.3105Z" fill="white"/>
<path d="M20.1546 25.9629C20.1546 25.3815 20.1546 24.8502 20.1546 24.278C20.329 24.2626 20.5292 24.2514 20.7263 24.2248C21.5198 24.1196 22.0914 23.4595 22.0739 22.6768C22.0563 21.9196 21.4754 21.281 20.6984 21.2166C20.2588 21.1798 19.8131 21.2105 19.2641 21.2105C19.4953 20.7517 19.6645 20.3879 19.8626 20.0415C19.908 19.9618 20.0525 19.8913 20.1505 19.8923C22.1079 19.9087 24.0643 19.9363 26.0218 19.9649C26.1219 19.9659 26.222 20.0027 26.352 20.0293C26.352 22.0003 26.352 23.9633 26.352 25.9629C24.2655 25.9629 22.1956 25.9629 20.1546 25.9629Z" fill="white"/>
<path d="M19.9318 8.39478C19.9318 6.68529 19.9318 5.0555 19.9318 3.39505C21.9975 2.85553 24.0458 2.87597 26.092 3.4114C26.2065 3.44103 26.3706 3.59941 26.3716 3.69955C26.3891 5.24351 26.384 6.78747 26.384 8.38967C24.2088 7.96358 22.0945 7.95745 19.9318 8.39478Z" fill="white"/>
<path d="M27.4375 25.9996C27.4375 23.9938 27.4375 22.0769 27.4375 20.0374C28.4828 20.2274 29.4857 20.4032 30.4856 20.5953C30.8045 20.6566 31.1109 20.7874 31.4298 20.8385C31.8611 20.9079 32.0107 21.1021 31.9973 21.5527C31.9612 22.7595 31.987 23.9683 31.9839 25.1761C31.9828 25.8637 31.858 25.9955 31.1831 25.9976C29.9501 26.0027 28.716 25.9996 27.4375 25.9996Z" fill="white"/>
<path d="M26.386 13.6419C25.2242 13.5693 24.1149 13.4998 22.9592 13.4273C22.758 12.8612 22.4423 12.3064 21.7571 12.2185C21.171 12.1429 20.5663 12.2032 19.9142 12.2032C19.9142 11.2958 19.9018 10.4845 19.9297 9.67314C19.9328 9.57096 20.1278 9.41565 20.2568 9.38806C21.884 9.03553 23.5298 8.97422 25.1726 9.22866C26.3933 9.41769 26.3871 9.45448 26.3871 10.6817C26.386 11.6657 26.386 12.6497 26.386 13.6419Z" fill="white"/>
<path d="M18.8803 3.74561C18.8803 5.33453 18.8855 6.87644 18.87 8.41836C18.8689 8.52974 18.7369 8.70651 18.6306 8.73819C16.9703 9.23274 15.4762 10.041 14.0326 11.1159C14.013 10.9177 13.9883 10.7787 13.9883 10.6398C13.9862 9.60264 14.0037 8.5655 13.9821 7.52938C13.9738 7.14109 14.1028 6.85907 14.3742 6.58625C15.536 5.42342 16.8744 4.52627 18.3953 3.89377C18.5336 3.83757 18.6811 3.80589 18.8803 3.74561Z" fill="white"/>
<path d="M26.3571 14.6515C26.3571 16.1443 26.3571 17.533 26.3571 18.8859C24.4111 18.8859 22.4949 18.8859 20.4735 18.8859C20.6448 18.5333 20.7624 18.2789 20.8904 18.0296C21.4434 16.9536 21.9934 15.8766 22.564 14.8098C22.6373 14.6729 22.823 14.4982 22.952 14.5013C24.0809 14.5299 25.2087 14.5953 26.3571 14.6515Z" fill="white"/>
<path d="M31.9859 10.8881C30.595 9.91734 29.2195 9.20003 27.7089 8.74839C27.5871 8.7116 27.4292 8.52257 27.4272 8.40301C27.4076 6.90708 27.4148 5.41012 27.4148 3.71289C28.4332 4.32598 29.3702 4.81645 30.2235 5.42136C32.0035 6.6833 31.9859 6.70885 31.9859 8.85874C31.9859 9.4984 31.9859 10.1391 31.9859 10.8881Z" fill="white"/>
<path d="M31.9849 19.8309C30.5021 19.5754 29.0709 19.3312 27.6428 19.0737C27.5572 19.0584 27.4282 18.9317 27.4272 18.8561C27.4138 17.5522 27.4179 16.2484 27.4179 14.8955C28.9935 15.248 30.4289 15.7824 31.8043 16.4783C31.8962 16.5243 31.9756 16.6898 31.9766 16.8002C31.9911 17.8179 31.9849 18.8356 31.9849 19.8309Z" fill="white"/>
<path d="M27.4354 13.748C27.4354 12.4932 27.4354 11.171 27.4354 9.79565C27.5809 9.81916 27.7099 9.82222 27.8275 9.86105C29.2917 10.3464 30.6012 11.1118 31.8126 12.0477C31.9023 12.1172 31.9766 12.2664 31.9777 12.3798C31.99 13.3638 31.9849 14.3478 31.9849 15.3104C30.4804 14.7933 28.9977 14.2845 27.4354 13.748Z" fill="white"/>
<path d="M18.8659 9.74146C18.8659 10.5896 18.8659 11.3355 18.8659 12.1182C17.4202 12.1182 15.9901 12.1182 14.4557 12.1182C15.8012 11.0136 17.2231 10.2493 18.8659 9.74146Z" fill="white"/>
<path d="M9.15606 25.1075C9.15606 25.5653 8.73506 25.9822 8.26144 25.9945C7.76821 26.0067 7.31935 25.5806 7.32142 25.1014C7.32348 24.6416 7.74242 24.2247 8.21501 24.2124C8.70824 24.2002 9.15606 24.6263 9.15606 25.1075Z" fill="white"/>
<path d="M19.1868 25.1025C19.1878 25.6022 18.8266 25.9793 18.3334 25.9936C17.8196 26.0089 17.4254 25.6237 17.4243 25.1066C17.4233 24.61 17.7876 24.2279 18.2767 24.2125C18.7843 24.1982 19.1847 24.5896 19.1868 25.1025Z" fill="white"/>
</g>
</g>
<defs>
<clipPath id="clip0_147_18566">
<rect width="31.4851" height="30" fill="white" transform="translate(0.757416)"/>
</clipPath>
<clipPath id="clip1_147_18566">
<rect width="32" height="23" fill="white" transform="translate(-0.000762939 3)"/>
</clipPath>
</defs>
</svg>
