<svg width="33" height="30" viewBox="0 0 33 30" fill="none" xmlns="http://www.w3.org/2000/svg">
<g clip-path="url(#clip0_147_18585)">
<g clip-path="url(#clip1_147_18585)">
<path d="M16.5878 8.20453C16.4222 8.8237 16.5747 9.32982 17.0565 9.68556C18.1551 10.4997 19.2547 11.3159 20.4002 12.0658C21.9369 13.0728 23.6 13.9192 25.0637 15.0113C27.9737 17.183 28.4935 20.116 27.6097 23.3654C27.408 24.1069 27.0168 24.806 26.6648 25.5029C26.5885 25.6533 26.3116 25.8006 26.1264 25.8006C19.3692 25.8161 12.612 25.8151 5.85589 25.8047C5.69023 25.8047 5.45154 25.7135 5.37089 25.59C3.87123 23.3177 3.24892 19.1826 5.37525 16.5255C6.40736 15.2353 7.74354 14.2977 9.17236 13.4597C10.5619 12.6435 11.9755 11.8625 13.3291 10.9965C13.983 10.5775 14.5345 10.0091 15.1089 9.48436C15.2669 9.33916 15.402 9.11721 15.4369 8.9129C15.5568 8.21801 15.4762 8.11326 14.783 7.81664C13.1057 7.10102 12.0899 5.52561 12.1869 3.79359C12.2818 2.08543 13.5111 0.605435 15.2473 0.0764955C15.5753 -0.0230695 15.911 -0.0718149 16.056 0.235177C16.1475 0.429122 16.0832 0.768265 15.9557 0.964284C14.8495 2.67763 15.7377 4.71249 17.7616 5.03297C18.4951 5.14913 19.1501 4.95104 19.779 4.57974C19.9849 4.4584 20.3337 4.39306 20.543 4.47499C20.895 4.61086 20.8056 4.93029 20.6966 5.23417C20.0307 7.10309 18.6128 8.022 16.5878 8.20453Z" fill="white"/>
<path d="M15.9936 30.9989C12.3088 30.9989 8.62501 30.9989 4.94017 30.9989C4.12167 30.9989 4.00506 30.8859 4.00397 30.0987C4.00288 29.5459 3.99307 28.9931 4.00833 28.4403C4.03448 27.4934 4.70366 26.8514 5.70416 26.8504C12.5649 26.8441 19.4256 26.8441 26.2863 26.8504C27.2857 26.8514 27.9571 27.4965 27.9811 28.4424C27.9963 29.0294 27.9876 29.6164 27.9844 30.2045C27.9811 30.8527 27.8329 30.9979 27.156 30.9979C23.4352 31 19.7144 30.9989 15.9936 30.9989Z" fill="white"/>
</g>
</g>
<defs>
<clipPath id="clip0_147_18585">
<rect width="31.4851" height="30" fill="white" transform="translate(0.757423)"/>
</clipPath>
<clipPath id="clip1_147_18585">
<rect width="24" height="31" fill="white" transform="translate(3.99961)"/>
</clipPath>
</defs>
</svg>
