<svg width="40" height="40" viewBox="0 0 40 40" fill="none" xmlns="http://www.w3.org/2000/svg">
<path d="M12.537 8.23773C12.537 7.97194 12.537 7.71457 12.537 7.45679C12.537 6.67795 12.531 5.89869 12.54 5.11985C12.5465 4.56847 12.9345 4.11144 13.4499 4.01877C13.9773 3.924 14.5048 4.19358 14.6975 4.6902C14.7687 4.87385 14.788 5.08615 14.7893 5.28581C14.7957 6.22261 14.7872 7.1594 14.785 8.0962C14.785 8.1438 14.7957 8.1914 14.8026 8.24742C18.2685 8.24742 21.725 8.24742 25.215 8.24742C25.215 8.05661 25.215 7.87043 25.215 7.68425C25.215 6.83885 25.2133 5.99388 25.2155 5.14849C25.2172 4.49433 25.6944 4.00361 26.3244 4.00361C26.9673 4.00319 27.4587 4.49265 27.4621 5.15144C27.4664 6.05622 27.4608 6.96143 27.46 7.86663C27.46 7.98542 27.46 8.1042 27.46 8.25753C27.8346 8.25753 28.1956 8.25711 28.5565 8.25753C29.6998 8.25879 30.8452 8.22257 31.9864 8.27059C33.5597 8.33714 34.7219 9.10587 35.4927 10.4432C35.8519 11.0662 35.9982 11.7486 35.9982 12.4605C35.9995 18.9254 36.0017 25.3907 35.9978 31.8556C35.9965 33.9108 34.4704 35.6639 32.407 35.939C31.7607 36.0253 31.0967 35.9942 30.441 35.9958C28.3278 36.0017 26.2145 35.9979 24.1013 35.9975C20.5174 35.9967 16.9334 35.9963 13.3495 35.9946C11.5933 35.9937 9.83674 36.0076 8.08059 35.9845C6.35234 35.9617 4.81636 34.8387 4.24471 33.236C4.07734 32.7667 4.00223 32.284 4.00223 31.7916C3.99966 25.3339 3.99923 18.8757 4.00137 12.4179C4.0018 10.3236 5.56826 8.55786 7.67331 8.28238C7.99047 8.2411 8.31577 8.24995 8.63722 8.2491C9.88781 8.24573 11.1388 8.24784 12.3894 8.24742C12.4302 8.24784 12.4718 8.24236 12.537 8.23773ZM12.5358 10.4639C12.4684 10.4605 12.4267 10.4567 12.3847 10.4567C10.9689 10.4559 9.55263 10.455 8.13681 10.4563C8.04497 10.4563 7.95055 10.4643 7.86129 10.485C6.84331 10.7162 6.2575 11.4453 6.2575 12.4824C6.25707 18.9123 6.25707 25.3423 6.2575 31.7722C6.2575 31.8354 6.2575 31.8986 6.26093 31.9618C6.29827 32.6256 6.60984 33.1336 7.1699 33.4997C7.59606 33.7785 8.07544 33.8021 8.56855 33.8013C12.3731 33.7958 16.1781 33.7971 19.9826 33.7971C23.9232 33.7971 27.8638 33.7992 31.8044 33.7971C32.5945 33.7966 33.3052 33.3042 33.6056 32.5882C33.7417 32.2642 33.7172 31.9365 33.7168 31.5991C33.7099 26.7976 33.7121 21.9965 33.7121 17.195C33.7121 15.6437 33.6923 14.0919 33.7181 12.5409C33.7412 11.1547 32.6138 10.41 31.6066 10.4441C30.271 10.4896 28.9325 10.4542 27.5952 10.4546C27.5407 10.4546 27.4862 10.4643 27.4218 10.4706C27.4218 10.7288 27.4222 10.9736 27.4218 11.2183C27.4214 11.4639 27.4244 11.7099 27.4188 11.9554C27.4063 12.4971 27.0673 12.9146 26.5454 13.038C26.0626 13.1521 25.5588 12.9259 25.3107 12.4908C25.1597 12.2259 25.173 11.9394 25.1743 11.6522C25.176 11.2608 25.1747 10.8699 25.1747 10.4664C21.7036 10.4664 18.2544 10.4664 14.7837 10.4664C14.7837 10.5545 14.7837 10.6303 14.7837 10.7061C14.7837 11.1185 14.7837 11.5308 14.7837 11.9432C14.7833 12.2751 14.6739 12.5637 14.4134 12.7827C14.0554 13.0843 13.6512 13.1593 13.2168 12.9714C12.7744 12.7802 12.5538 12.4247 12.5392 11.9592C12.5242 11.4698 12.5358 10.9786 12.5358 10.4639Z" fill="white"/>
<path d="M19.967 25.4193C19.2958 25.4193 18.6246 25.4066 17.9538 25.4231C17.3268 25.4382 16.7925 24.9749 16.7891 24.3098C16.7861 23.6961 17.3036 23.2226 17.9611 23.2222C19.3186 23.2209 20.6756 23.2213 22.033 23.2234C22.6957 23.2243 23.1699 23.6893 23.1721 24.3334C23.1738 24.9239 22.6734 25.4134 22.0442 25.4205C21.352 25.4285 20.6597 25.4222 19.9675 25.4222C19.967 25.4214 19.967 25.4201 19.967 25.4193Z" fill="white"/>
<path d="M20.0218 18.1154C20.7222 18.1154 21.423 18.1066 22.1234 18.1184C22.6972 18.128 23.1126 18.5375 23.168 19.1171C23.2173 19.6335 22.8483 20.1474 22.3333 20.2708C22.2303 20.2957 22.1217 20.3108 22.0157 20.3108C20.6638 20.3129 19.3119 20.3138 17.9605 20.31C17.3515 20.3083 16.9146 19.9494 16.8146 19.3829C16.6876 18.6638 17.2575 18.0792 18.0493 18.1049C18.3776 18.1158 18.7068 18.1049 19.0355 18.1045C19.3643 18.104 19.693 18.1045 20.0218 18.1045C20.0218 18.1083 20.0218 18.112 20.0218 18.1154Z" fill="white"/>
<path d="M20.0157 28.3498C20.7011 28.3498 21.3864 28.3427 22.0714 28.3519C22.7121 28.3608 23.1593 28.8056 23.1731 29.4256C23.1859 30.0094 22.7048 30.5355 22.0941 30.5423C20.6873 30.5579 19.2801 30.5566 17.8733 30.5406C17.2476 30.5334 16.7643 30.0044 16.7879 29.4117C16.8133 28.7774 17.3386 28.3258 18.0239 28.3406C18.3591 28.3477 18.6947 28.341 19.0303 28.3406C19.3586 28.3401 19.687 28.3406 20.0153 28.3406C20.0157 28.3435 20.0157 28.3469 20.0157 28.3498Z" fill="white"/>
<path d="M27.94 18.1141C28.6258 18.1141 29.3112 18.109 29.997 18.1158C30.6421 18.1221 31.127 18.5922 31.1236 19.1945C31.1201 19.8226 30.6296 20.3091 29.9803 20.3112C28.6155 20.3158 27.2504 20.3158 25.8856 20.3116C25.3303 20.3099 24.8586 19.9245 24.7668 19.4174C24.6719 18.8925 24.9432 18.3892 25.4453 18.1908C25.5736 18.1398 25.7221 18.1187 25.8616 18.1175C26.5547 18.1099 27.2474 18.1141 27.94 18.1141Z" fill="white"/>
<path d="M12.0673 25.4171C11.36 25.4167 10.6532 25.4243 9.94635 25.4142C9.43564 25.407 9.02965 25.0696 8.9009 24.576C8.78245 24.1219 9.00261 23.6034 9.43993 23.3767C9.6043 23.2917 9.80301 23.2297 9.98669 23.2281C11.3729 23.2158 12.7595 23.2175 14.1462 23.2234C14.7633 23.226 15.2457 23.7226 15.2465 24.335C15.2478 24.9239 14.7727 25.4075 14.1668 25.415C13.4672 25.4239 12.7673 25.4176 12.0673 25.4171Z" fill="white"/>
<path d="M12.0583 30.5468C11.372 30.5468 10.6862 30.5527 10 30.5451C9.43479 30.5388 8.961 30.1403 8.88418 29.6252C8.80049 29.0649 9.12451 28.5565 9.67899 28.3914C9.78628 28.3594 9.90301 28.3434 10.0159 28.3434C10.9944 28.3421 11.9729 28.3459 12.9514 28.3484C13.3728 28.3497 13.7951 28.3308 14.2148 28.3586C14.8479 28.4003 15.2702 28.8876 15.2427 29.5022C15.2165 30.0856 14.729 30.5417 14.1166 30.5455C13.4308 30.5502 12.7445 30.5468 12.0583 30.5468Z" fill="white"/>
<path d="M27.9575 28.3498C28.6287 28.3498 29.3 28.3464 29.9712 28.3506C30.6475 28.3548 31.1201 28.8093 31.1201 29.4471C31.1201 30.0667 30.6226 30.5452 29.9639 30.5473C28.6064 30.5511 27.2485 30.5515 25.8911 30.5473C25.3345 30.5456 24.865 30.1661 24.7684 29.6581C24.6693 29.1354 24.9384 28.6299 25.4426 28.429C25.577 28.3755 25.7332 28.3548 25.8795 28.3532C26.5722 28.3456 27.2649 28.3498 27.9575 28.3498Z" fill="white"/>
<path d="M12.0404 18.1188C12.7687 18.1188 13.4978 18.0961 14.2248 18.126C14.8428 18.1512 15.2587 18.6432 15.2436 19.2553C15.2295 19.8256 14.7493 20.2995 14.1497 20.3075C13.321 20.3189 12.4918 20.3121 11.6631 20.3125C11.1056 20.313 10.5482 20.3189 9.99109 20.3096C9.42674 20.2999 8.95251 19.8938 8.88385 19.3808C8.80831 18.8155 9.13448 18.3109 9.68939 18.1534C9.81728 18.1171 9.95676 18.1087 10.0911 18.1074C10.7408 18.1028 11.391 18.1053 12.0408 18.1053C12.0404 18.1095 12.0404 18.1142 12.0404 18.1188Z" fill="white"/>
<path d="M27.9297 25.4224C27.237 25.4224 26.5439 25.4308 25.8513 25.4195C25.3109 25.4106 24.9114 25.0863 24.7826 24.5846C24.6616 24.1141 24.8633 23.6196 25.3058 23.3807C25.468 23.2931 25.668 23.2316 25.8513 23.2299C27.2379 23.2177 28.6245 23.2207 30.0112 23.2245C30.6124 23.2261 31.1146 23.711 31.1201 24.283C31.1266 24.9207 30.6669 25.4106 30.0301 25.4203C29.3297 25.4308 28.6297 25.4224 27.9297 25.4224Z" fill="white"/>
</svg>
