<svg width="41" height="40" viewBox="0 0 41 40" fill="none" xmlns="http://www.w3.org/2000/svg">
<path fill-rule="evenodd" clip-rule="evenodd" d="M9.18629 31.3137C7.84198 29.9694 7.45632 27.9188 7.8779 25.2282C5.67728 23.6238 4.5 21.9011 4.5 20C4.5 18.0988 5.67728 16.3761 7.8779 14.7717C7.45632 12.0812 7.84198 10.0306 9.18629 8.68626C10.5306 7.34195 12.5812 6.95628 15.2718 7.37787C16.8762 5.17724 18.5989 3.99997 20.5 3.99997C22.4011 3.99997 24.1238 5.17724 25.7282 7.37787C28.4188 6.95628 30.4694 7.34195 31.8137 8.68626C33.158 10.0306 33.5437 12.0812 33.1221 14.7717C35.3227 16.3761 36.5 18.0988 36.5 20C36.5 21.9011 35.3227 23.6238 33.1221 25.2282C33.5437 27.9188 33.158 29.9694 31.8137 31.3137C30.4694 32.658 28.4188 33.0437 25.7282 32.6221C24.1238 34.8227 22.4011 36 20.5 36C18.5989 36 16.8762 34.8227 15.2718 32.6221C12.5812 33.0437 10.5306 32.658 9.18629 31.3137ZM15.6309 29.597C16.2214 29.4706 16.8285 29.7221 17.1566 30.229C18.4377 32.2083 19.5801 33.0908 20.4999 33.0908C21.4197 33.0908 22.562 32.2083 23.8432 30.229C24.1712 29.7221 24.7784 29.4706 25.3689 29.597C27.6744 30.0908 29.1062 29.907 29.7566 29.2566C30.407 28.6062 30.5907 27.1744 30.097 24.8689C29.9705 24.2785 30.222 23.6713 30.7289 23.3432C32.7083 22.0621 33.5908 20.9197 33.5908 19.9999C33.5908 19.0801 32.7083 17.9378 30.7289 16.6567C30.222 16.3286 29.9705 15.7214 30.097 15.131C30.5907 12.8255 30.407 11.3937 29.7566 10.7433C29.1062 10.0929 27.6744 9.90912 25.3689 10.4029C24.7784 10.5293 24.1712 10.2778 23.8432 9.77091C22.562 7.79153 21.4197 6.90903 20.4999 6.90903C19.5801 6.90903 18.4377 7.79153 17.1566 9.77091C16.8285 10.2778 16.2214 10.5293 15.6309 10.4029C13.3254 9.90912 11.8936 10.0929 11.2432 10.7433C10.5928 11.3937 10.4091 12.8255 10.9028 15.131C11.0293 15.7214 10.7778 16.3286 10.2709 16.6567C8.29148 17.9378 7.40898 19.0801 7.40898 19.9999C7.40898 20.9197 8.29148 22.0621 10.2709 23.3432C10.7778 23.6713 11.0293 24.2785 10.9028 24.8689C10.4091 27.1744 10.5928 28.6062 11.2432 29.2566C11.8936 29.907 13.3254 30.0908 15.6309 29.597ZM25.2898 14.6078L19.0456 20.852L15.7104 17.5169L13.6534 19.5739L19.0456 24.9661L27.3468 16.6648L25.2898 14.6078Z" fill="white"/>
</svg>
