<svg width="40" height="41" viewBox="0 0 40 41" fill="none" xmlns="http://www.w3.org/2000/svg">
<path d="M9.66985 27.2967C9.65684 25.7027 10.3929 24.6648 12.0245 24.2851C11.6356 23.9678 11.7581 23.5518 11.7814 23.1587C11.7855 23.0883 11.8327 22.9836 11.8889 22.9594C12.2675 22.7984 12.1771 22.4771 12.1785 22.1893C12.1812 21.4734 12.1984 20.7576 12.1765 20.0424C12.0751 16.7618 14.5824 13.6884 18.229 13.2591C18.2742 13.2537 18.3187 13.2463 18.407 13.2329C18.3632 12.6479 18.5974 12.242 19.0896 12.1897C19.3115 11.8951 19.4731 11.7046 19.6045 11.4953C19.6572 11.4114 19.6538 11.2873 19.6579 11.1806C19.6655 10.9915 19.66 10.8016 19.66 10.5809C18.4974 10.3367 17.6436 9.71207 17.2177 8.6098C16.9226 7.84633 16.95 7.07346 17.2828 6.32408C17.9223 4.88637 19.6744 4.12021 21.1088 4.68845C19.4744 4.74347 18.4837 5.4895 18.2578 7.06474C18.1201 8.0221 18.7151 9.04051 19.647 9.52623C20.6863 10.0676 21.7366 9.88181 22.8341 8.96202C22.5877 9.73958 21.6366 10.3769 20.3371 10.6151C20.3371 10.8606 20.3337 11.1142 20.3399 11.3678C20.3412 11.4155 20.3734 11.4671 20.4035 11.508C20.5432 11.7006 20.6877 11.8904 20.7924 12.1092C21.4901 12.4158 21.5168 12.4493 21.601 13.2047C22.0625 13.308 22.5322 13.3879 22.9868 13.5194C25.7913 14.3298 27.7748 16.8973 27.8138 19.7606C27.8261 20.6771 27.8131 21.5942 27.8206 22.5113C27.8213 22.6106 27.8446 22.7434 27.9117 22.8038C28.3458 23.1949 28.3882 23.8175 27.9754 24.2992C28.7018 24.43 29.2989 24.7581 29.7501 25.3243C30.2088 25.9006 30.3286 26.5729 30.3156 27.3155C30.4498 27.3216 30.5593 27.3283 30.6682 27.331C31.1167 27.343 31.3118 27.5302 31.3132 27.9696C31.3166 29.088 31.3145 30.2057 31.3145 31.3241C31.3145 32.5431 31.3145 33.7614 31.3145 34.9804C31.3145 35.1019 31.3145 35.224 31.3145 35.3373C31.9328 35.4923 32.0424 35.6164 31.9876 36.0753C31.9588 36.3168 31.8301 36.4644 31.5747 36.4873C31.5069 36.4933 31.4378 36.494 31.37 36.494C23.7927 36.494 16.2161 36.4913 8.63873 36.5C8.0232 36.5007 7.95474 36.1659 8.01978 35.7526C8.07455 35.4051 8.38334 35.4058 8.68118 35.3635C8.68118 35.222 8.68118 35.0905 8.68118 34.9583C8.68118 32.6887 8.68118 30.4184 8.68118 28.1488C8.68118 27.4698 8.78251 27.3672 9.48636 27.3289C9.54113 27.3269 9.59522 27.3108 9.66985 27.2967ZM22.6801 34.9757C22.6801 34.3558 22.6808 33.7755 22.6801 33.1945C22.6773 31.4737 22.7027 29.7529 22.6623 28.0327C22.628 26.5802 21.1177 25.4095 19.6579 25.6423C18.2228 25.8711 17.3225 26.9002 17.3184 28.336C17.3122 30.4479 17.3163 32.5592 17.317 34.6712C17.317 34.7684 17.3273 34.865 17.3334 34.9757C19.1177 34.9757 20.8794 34.9757 22.6801 34.9757ZM15.0678 34.9764C15.0678 33.5085 15.0713 32.0788 15.0665 30.6498C15.0631 29.5771 14.3058 28.7975 13.2836 28.8036C12.2545 28.8096 11.5151 29.5811 11.513 30.6586C11.5103 31.9876 11.5116 33.3166 11.513 34.6457C11.513 34.753 11.5233 34.861 11.5294 34.9764C12.716 34.9764 13.8738 34.9764 15.0678 34.9764ZM28.443 34.9737C28.4601 34.9362 28.4766 34.9167 28.4766 34.8972C28.4786 33.4005 28.5026 31.9037 28.469 30.4083C28.454 29.7475 28.0747 29.247 27.4564 28.9652C26.263 28.4212 24.9471 29.2531 24.9327 30.5667C24.9176 31.9735 24.9286 33.381 24.9299 34.7886C24.9299 34.851 24.9471 34.914 24.956 34.9737C26.135 34.9737 27.2928 34.9737 28.443 34.9737Z" fill="white"/>
</svg>
