<svg width="135" height="50" viewBox="0 0 135 50" fill="none" xmlns="http://www.w3.org/2000/svg">
<g clip-path="url(#clip0_102_21461)">
<path d="M26.2709 2.33684C27.4242 2.59949 28.2882 3.35325 29.1469 4.08542C36.2624 10.1569 37.2325 19.3765 33.875 26.083C31.0331 31.7605 26.19 34.8672 19.9386 35.7379C9.30037 37.2221 0.675887 28.5871 0.0435566 19.0653C-0.342668 13.2421 1.9154 8.51983 6.13153 4.6359C9.2339 1.77737 12.9452 0.408368 17.1147 0.197891C17.5494 0.176304 17.9715 -0.0845439 18.4171 0.111542C18.5572 1.78996 18.5356 3.47018 18.4242 5.1486C18.153 6.31612 18.356 7.50343 18.2913 8.67994C18.2698 9.0847 18.3668 9.51645 18.0596 9.86545C17.8566 9.99497 17.6733 9.941 17.5009 9.80248C17.3967 9.69275 17.3338 9.55603 17.2979 9.41031C16.8308 7.48004 15.1422 6.89718 13.7033 6.91337C11.9985 6.93316 10.4698 8.19962 10.098 9.7773C9.85006 10.8243 10.1752 11.7921 10.574 12.7366C10.9602 13.6504 11.5153 14.469 12.0327 15.3091C14.3554 19.0761 16.5039 22.9474 18.8087 26.7252C19.9368 28.5745 21.3488 29.1682 23.3482 28.6861C24.0739 28.5116 24.6793 28.1662 25.0673 27.5005C25.2344 27.2523 25.4661 27.0562 25.6152 26.7936C25.8649 26.0794 26.199 25.3796 25.9368 24.5898C25.9098 24.1779 25.7859 23.7767 25.8164 23.3576C25.8667 23.1147 25.9188 22.8736 25.9799 22.6326C26.1308 21.4579 26.0463 20.2814 26.023 19.1066C26.0086 13.9455 26.0158 8.78428 26.0194 3.62489C26.0194 3.18235 25.9547 2.72002 26.2709 2.33684Z" fill="#009C66"/>
<path d="M52.8236 36.3657C50.314 36.3747 48.3757 35.7901 46.4733 35.0525C44.6069 34.3293 42.8482 33.3741 41.0482 32.5088C40.6333 32.3091 40.7105 32.0986 40.8902 31.827C41.5961 30.753 42.3183 29.6898 43.0099 28.6086C43.2812 28.1841 43.5345 28.4665 43.7608 28.5961C44.7937 29.1951 45.7961 29.8481 46.8416 30.4238C47.9787 31.0498 49.1715 31.4852 50.5188 31.2999C51.5733 31.156 52.3008 30.6199 52.617 29.6089C52.926 28.6194 52.5865 27.7757 51.8517 27.0957C50.7488 26.0775 49.4841 25.2716 48.2446 24.4369C45.9632 22.9024 43.5722 21.5172 41.5692 19.6031C39.0435 17.1889 37.5686 14.3214 37.9962 10.7181C38.5656 5.9095 42.7099 1.52906 47.4398 0.491064C52.3709 -0.591904 56.9858 0.10249 61.3618 2.57605C62.0103 2.94303 62.6696 3.31002 63.363 3.56907C63.9828 3.80113 63.9271 4.11595 63.699 4.58367C63.3271 5.34823 62.7002 5.92389 62.2403 6.62368C61.4337 7.84877 61.4211 7.85956 60.1565 7.113C59.2816 6.5967 58.4391 6.02643 57.5733 5.49754C56.3894 4.77616 55.0996 4.60346 53.7811 4.96325C51.8895 5.47775 51.3362 7.42421 52.6332 8.87237C53.6248 9.97872 54.8787 10.7433 56.1182 11.524C58.7517 13.1827 61.3924 14.8431 63.5391 17.1349C67.9726 21.868 67.6834 28.2471 62.9642 32.7049C60.7385 34.8078 58.0816 35.7343 55.1463 36.0995C54.2284 36.2164 53.3086 36.3117 52.8236 36.3657Z" fill="white"/>
<path d="M83.145 0.458666C87.9324 0.458666 92.7198 0.476655 97.5072 0.442475C98.3443 0.437078 98.7179 0.712318 98.9281 1.52904C99.3718 3.26143 99.9233 4.96863 100.439 6.68303C100.617 7.27668 100.495 7.52314 99.7958 7.51594C97.1928 7.49076 94.5898 7.54473 91.9868 7.52854C91.3904 7.52494 91.1875 7.67605 91.1228 8.30748C90.5138 14.2908 89.8599 20.2705 89.2204 26.252C88.906 29.1987 88.5809 32.1436 88.2953 35.092C88.2468 35.5868 88.0743 35.7828 87.5947 35.7882C84.363 35.8152 81.133 35.844 77.9013 35.8908C77.3247 35.8998 77.3912 35.4914 77.3642 35.1586C77.1594 32.5321 76.9726 29.9039 76.7714 27.2774C76.3151 21.3067 75.8624 15.336 75.3882 9.36706C75.3361 8.71944 75.6038 7.85774 75.1421 7.47817C74.6606 7.0842 73.8217 7.35944 73.1409 7.35404C71.1954 7.33605 69.2517 7.32526 67.3062 7.35044C66.7673 7.35764 66.6541 7.20473 66.7529 6.68843C67.1104 4.83911 67.4733 2.98979 67.7373 1.12608C67.8326 0.453269 68.0679 0.323745 68.693 0.327342C73.511 0.354327 78.3271 0.341734 83.145 0.341734C83.145 0.381311 83.145 0.419089 83.145 0.458666Z" fill="white"/>
<path d="M26.2707 2.33678C26.2797 7.9531 26.2886 13.5712 26.2976 19.1875C26.0587 20.3838 26.3461 21.5999 26.1467 22.798C26.1072 23.0085 26.1593 23.2514 25.9384 23.3989C25.6024 23.3881 25.5126 23.1057 25.3833 22.879C23.2599 19.1624 20.9821 15.5393 18.821 11.846C18.451 11.2128 17.9893 10.5814 18.1276 9.76464C18.1887 8.24273 18.0522 6.71902 18.1995 5.20071C18.2103 3.81192 18.2139 2.42133 18.2336 1.03254C18.239 0.719527 18.1294 0.37233 18.4187 0.113281C20.5582 0.264393 22.6563 0.61159 24.6557 1.42472C25.2306 1.65678 25.8018 1.90863 26.2707 2.33678Z" fill="#045F3E"/>
<path d="M124.309 42.2555C124.757 41.9047 125.179 41.5773 125.809 41.5791C127.257 41.5827 127.886 42.0576 128.154 43.4986C128.369 44.6607 128.137 45.8246 128.179 46.9886C128.193 47.4005 127.915 47.3627 127.636 47.3807C127.243 47.4059 127.203 47.1828 127.209 46.877C127.225 45.8912 127.245 44.9036 127.237 43.9177C127.232 43.2557 127.254 42.5415 126.364 42.3922C125.443 42.2357 124.665 42.6837 124.378 43.5292C124.033 44.5474 124.229 45.6052 124.18 46.645C124.166 46.9526 124.374 47.3807 123.736 47.3915C123.115 47.4023 123.172 47.0299 123.174 46.6306C123.179 45.195 123.169 43.7594 123.188 42.3257C123.194 41.9677 123.267 41.6313 123.772 41.5845C124.324 41.5323 124.101 42.0234 124.309 42.2555Z" fill="white"/>
<path d="M44.9519 44.7794C44.9519 45.4378 44.9591 46.0944 44.9483 46.7528C44.9448 46.9759 45.0453 47.2745 44.7166 47.3501C44.4939 47.4022 44.1525 47.485 44.0519 47.2583C43.8112 46.715 43.5274 47.0586 43.3082 47.1954C41.3843 48.4007 39.9364 46.7025 39.9418 45.1554C39.9454 44.1389 39.94 43.1225 39.9328 42.1061C39.931 41.8165 39.9328 41.5736 40.3442 41.5916C40.7268 41.6096 40.6639 41.8597 40.6711 42.0917C40.7017 43.1945 40.6172 44.3009 40.8238 45.4C40.9604 46.1232 41.3412 46.483 42.0705 46.5621C42.8106 46.6431 43.3837 46.5891 43.6873 45.7382C44.0753 44.6517 43.8615 43.5507 43.9316 42.4587C43.9495 42.1889 43.6711 41.7338 44.1759 41.6726C44.6807 41.6114 44.9447 41.9748 44.9627 42.4479C44.9915 43.2233 44.9699 44.0022 44.9699 44.7794C44.9663 44.7794 44.9591 44.7794 44.9519 44.7794Z" fill="white"/>
<path d="M65.2527 42.2483C65.7251 41.9802 66.0359 41.6222 66.564 41.588C68.2383 41.4783 69.1185 42.2231 69.2083 43.9788C69.2568 44.9053 69.2065 45.8354 69.2047 46.7636C69.2047 47.0694 69.2425 47.3915 68.7772 47.3717C68.3335 47.3519 68.4521 47.0191 68.4556 46.7762C68.4718 45.8174 68.5724 44.8441 68.3227 43.9141C68.1556 43.2899 68.2149 42.3886 67.1838 42.3886C65.9802 42.3886 65.4162 42.8905 65.2437 44.04C65.1072 44.9359 65.1665 45.8336 65.1647 46.7312C65.1629 47.0712 65.2096 47.3771 64.6886 47.3879C64.1892 47.3987 64.1784 47.1396 64.182 46.7744C64.1928 45.3065 64.1856 43.8385 64.1874 42.3706C64.1874 42.0306 64.2108 41.7086 64.6329 41.6024C65.1485 41.4747 65.1736 41.8903 65.2527 42.2483Z" fill="white" fill-opacity="0.945098"/>
<path d="M101.051 42.1889C101.42 42.0126 101.75 41.7517 102.111 41.696C104.006 41.4027 105.016 41.9064 104.978 43.8817C104.96 44.8675 104.962 45.8533 104.962 46.8392C104.962 47.1252 104.964 47.3824 104.56 47.377C104.116 47.3698 104.218 47.055 104.217 46.805C104.204 45.7634 104.355 44.7092 104.116 43.6838C104.001 43.1909 104.132 42.4677 103.327 42.3868C102.311 42.286 101.457 42.7591 101.161 43.5885C100.854 44.4519 100.979 45.3586 100.936 46.2473C100.926 46.4848 100.936 46.7258 100.945 46.9633C100.954 47.2115 100.866 47.3608 100.597 47.3734C100.3 47.386 100.162 47.2637 100.162 46.9543C100.167 45.3118 100.167 43.6676 100.162 42.0252C100.162 41.7859 100.221 41.6438 100.491 41.5934C101.008 41.4999 100.882 42.0018 101.051 42.1889Z" fill="white"/>
<path d="M85.9307 44.3854C85.9307 43.6083 85.9271 42.8311 85.9325 42.054C85.9342 41.8579 85.8732 41.6025 86.2019 41.6025C86.3726 41.6025 86.6295 41.5467 86.6438 41.7787C86.6959 42.6153 87.0768 42.036 87.2851 41.9227C89.06 40.9548 90.6444 41.7913 90.7324 43.7936C90.7773 44.8064 90.7109 45.8246 90.6965 46.841C90.6929 47.127 90.6821 47.3897 90.2815 47.3735C89.8648 47.3573 89.9222 47.0695 89.9222 46.8014C89.9258 45.9055 90.0013 45.0007 89.9043 44.1138C89.8342 43.477 90.0408 42.5379 89.0618 42.4012C87.7917 42.2213 87.0121 42.8293 86.7678 43.9843C86.5935 44.8136 86.7211 45.6555 86.6474 46.4848C86.6205 46.7924 86.969 47.3843 86.2774 47.3555C85.6253 47.3285 85.972 46.76 85.9468 46.447C85.8929 45.7634 85.9307 45.0726 85.9307 44.3854Z" fill="white"/>
<path d="M14.6336 45.6609C14.3175 46.859 13.0923 47.7207 11.9409 47.6074C10.5217 47.4671 9.28399 46.0207 9.25345 44.4664C9.2265 43.0255 10.2522 41.8867 11.8259 41.6097C13.139 41.3794 14.1468 41.9821 14.5815 43.2647C14.2241 43.3906 13.9438 43.2323 13.6851 43.0183C13.5935 42.9427 13.5271 42.8366 13.4337 42.7628C12.9486 42.376 11.3983 42.2249 11.057 42.5253C10.3457 43.1532 9.98638 44.4718 10.3241 45.2148C11.0858 46.886 12.2211 47.1091 13.7103 45.8768C13.8612 45.7527 13.9923 45.7203 14.6336 45.6609Z" fill="white"/>
<path d="M36.8446 43.2646C36.4871 43.3924 36.1673 43.2718 35.9536 43.0182C35.5206 42.5037 34.9602 42.4155 34.3458 42.3939C33.2087 42.3544 32.4362 43.1459 32.4183 44.3908C32.3967 45.8713 32.9931 46.5837 34.2721 46.5819C34.8973 46.5819 35.5206 46.6089 35.932 45.9523C36.1027 45.6806 36.4619 45.5835 36.8158 45.6698C36.5392 46.9039 35.4883 47.699 34.2614 47.6127C32.835 47.5101 31.5973 46.1861 31.5039 44.6624C31.4069 43.0685 32.3482 41.9118 34.0063 41.588C35.3105 41.3362 36.3937 41.9712 36.8446 43.2646Z" fill="white"/>
<path d="M121.097 42.3814C119.764 42.5667 119.698 42.6386 119.698 43.8961C119.698 44.8837 119.685 45.8731 119.703 46.8608C119.71 47.2332 119.617 47.4077 119.206 47.3879C118.845 47.3717 118.658 47.2871 118.663 46.877C118.679 45.4108 118.669 43.9429 118.67 42.4767C118.67 42.0306 118.868 41.7374 119.333 41.6672C119.79 41.5305 120.257 41.6096 120.716 41.6078C121.331 41.6042 121.394 41.9137 121.097 42.3814Z" fill="white"/>
<path d="M37.9362 44.8442C37.9362 44.2757 37.9416 43.7072 37.9344 43.1388C37.9308 42.7772 38.0781 42.3185 37.4224 42.3598C37.1889 42.3742 37.1745 42.1476 37.1691 41.9659C37.1655 41.8076 37.2105 41.6151 37.3739 41.6223C37.9649 41.6492 37.9667 41.2787 37.9362 40.8613C37.9146 40.5663 37.9416 40.327 38.3494 40.354C38.7104 40.3774 38.6997 40.6095 38.6835 40.8523C38.6548 41.3039 38.653 41.705 39.3051 41.6061C39.5673 41.5665 39.6715 41.7392 39.6643 41.9946C39.6571 42.2357 39.5889 42.3994 39.3104 42.4012C38.7302 42.4012 38.6673 42.761 38.6781 43.2413C38.7033 44.407 38.6907 45.5746 38.6835 46.7421C38.6817 47.0173 38.7985 47.3807 38.3009 47.3771C37.7907 47.3735 37.947 46.9903 37.9398 46.7313C37.9236 46.0998 37.9362 45.472 37.9362 44.8442Z" fill="white"/>
<path d="M23.425 44.8082C23.425 44.2703 23.443 43.7324 23.4196 43.1964C23.4034 42.8384 23.6442 42.2933 22.9005 42.358C22.7244 42.3724 22.6885 42.1853 22.6885 42.027C22.6903 41.8489 22.6741 41.6043 22.9076 41.6151C23.5543 41.6493 23.4178 41.2049 23.425 40.8379C23.4304 40.6041 23.3819 40.3648 23.7573 40.3486C24.1669 40.3306 24.1885 40.5681 24.1597 40.8559C24.1112 41.329 24.1615 41.696 24.7921 41.6025C25.0238 41.5683 25.1855 41.669 25.1944 41.9515C25.2034 42.2591 25.0669 42.4174 24.7723 42.3688C24.1094 42.2555 24.1525 42.6765 24.1579 43.1154C24.1687 44.3387 24.1669 45.5638 24.1561 46.7871C24.1543 47.0245 24.2819 47.3501 23.8328 47.3771C23.3316 47.4077 23.4304 47.0587 23.4268 46.7781C23.4196 46.1214 23.425 45.4648 23.425 44.8082Z" fill="white"/>
<path d="M22.1749 44.4844C22.1749 45.2921 22.1641 46.1017 22.1803 46.9094C22.1857 47.2422 22.0923 47.4041 21.7276 47.3861C21.4025 47.3699 21.1402 47.3645 21.1456 46.9202C21.1618 45.3929 21.151 43.8674 21.1582 42.3401C21.16 41.8687 21.415 41.6079 21.8893 41.6403C22.4031 41.6744 22.1516 42.0936 22.1641 42.3311C22.1983 43.047 22.1749 43.7666 22.1749 44.4844Z" fill="white"/>
<path d="M6.90984 44.434C6.90984 43.6586 6.90984 42.8833 6.90984 42.1061C6.90984 41.8722 6.97631 41.4585 7.21882 41.6582C7.82959 42.1619 8.29665 41.5466 8.82479 41.5952C9.06012 41.6168 9.39245 41.4639 9.42479 41.91C9.44814 42.2356 9.34754 42.3652 9.00084 42.4317C8.23917 42.5756 7.87809 43.1027 7.73977 43.8565C7.63019 44.4519 7.71822 45.0528 7.62301 45.6356C7.52959 46.2149 8.02899 47.2943 7.30684 47.2763C6.41044 47.2547 7.09846 46.1789 6.9296 45.5925C6.82541 45.2327 6.90984 44.8207 6.90984 44.434Z" fill="white"/>
<path d="M99.208 44.5527C99.208 45.3262 99.1918 46.1016 99.2152 46.8751C99.2278 47.2763 99.0607 47.3896 98.6889 47.3878C98.3242 47.386 98.1517 47.2871 98.1553 46.8805C98.1733 45.3928 98.1643 43.9033 98.1625 42.4155C98.1625 41.9658 98.3296 41.6582 98.8164 41.6402C99.4775 41.6168 99.1775 42.1331 99.1936 42.4101C99.235 43.1225 99.208 43.8385 99.208 44.5527Z" fill="white"/>
<path d="M47.0261 41.66C47.2381 41.66 47.3872 41.6564 47.5363 41.66C47.8776 41.6708 48.3087 41.5449 48.3716 42.0738C48.4327 42.59 47.9567 42.385 47.7339 42.4749C47.01 42.7699 46.5501 43.1441 46.6489 44.0544C46.7477 44.9683 46.6722 45.9019 46.6686 46.8266C46.6668 47.091 46.71 47.3843 46.2878 47.3753C45.8836 47.3681 45.9016 47.0982 45.9034 46.8212C45.9052 45.2705 45.898 43.718 45.907 42.1673C45.9106 41.1041 46.7405 41.9442 47.0261 41.66Z" fill="white"/>
<path d="M121.34 41.5269C122.01 41.3848 122.263 41.5881 122.231 42.3328C122.166 43.826 122.213 45.3227 122.211 46.8176C122.211 47.1324 122.312 47.4616 121.758 47.4598C121.2 47.458 121.316 47.118 121.315 46.8104C121.304 45.3461 121.297 43.8799 121.288 42.4156C121.221 42.1152 121.133 41.8129 121.34 41.5269Z" fill="white"/>
<path d="M99.1975 40.5681C99.1382 40.7156 99.3825 41.1078 98.9137 41.0844C98.443 41.061 98.1808 40.8325 98.1556 40.309C98.1341 39.8539 98.3802 39.8755 98.6945 39.8467C99.2442 39.7963 99.2514 40.1219 99.1975 40.5681Z" fill="white"/>
<path d="M122.208 40.5896C122.278 40.9944 122.163 41.1689 121.708 41.1617C121.124 41.1545 121.347 40.7551 121.318 40.4853C121.284 40.1615 121.248 39.87 121.773 39.8718C122.407 39.8754 122.155 40.3036 122.208 40.5896Z" fill="white"/>
<path d="M22.1585 41.0754C21.4327 41.1347 21.1076 40.8253 21.1561 40.1579C21.192 39.6614 21.6267 39.8143 21.8261 39.8755C22.5537 40.0985 22.0094 40.6724 22.1585 41.0754Z" fill="white"/>
<path d="M134.308 35.7937C130.88 35.7937 127.563 35.7847 124.245 35.8045C123.803 35.8081 123.621 35.6246 123.46 35.2594C122.89 33.9785 122.272 32.7175 121.722 31.4294C121.528 30.9725 121.284 30.8214 120.79 30.8232C114.986 30.8484 109.182 30.861 103.38 30.843C102.801 30.8412 102.614 31.084 102.474 31.5589C102.12 32.7606 101.727 33.9515 101.369 35.1514C101.253 35.5454 101.075 35.7235 100.624 35.7181C98.4107 35.6929 96.1975 35.7055 93.9844 35.7055C93.8299 35.4429 94.0059 35.2324 94.0814 35.0327C98.3748 23.7101 102.679 12.3911 106.967 1.06495C107.161 0.554052 107.394 0.33458 107.985 0.338178C113.281 0.365162 118.575 0.359766 123.871 0.347173C124.369 0.345374 124.652 0.406538 124.812 0.992996C127.934 12.4217 131.087 23.8415 134.229 35.2648C134.268 35.4051 134.274 35.5562 134.308 35.7937ZM106.635 23.7875C109.987 23.7965 113.339 23.8055 116.693 23.8145C118.401 23.8181 118.403 23.8181 117.72 22.2872C115.778 17.9373 113.835 13.5892 111.815 9.07208C109.728 14.0174 107.705 18.8152 105.607 23.7875C106.044 23.7875 106.338 23.7857 106.635 23.7875Z" fill="white"/>
<path d="M25.2634 27.5365C24.3778 29.2527 21.421 29.6466 19.7826 28.2471C19.4449 27.9592 19.109 27.6282 18.8862 27.2504C16.0515 22.4706 13.1899 17.7052 10.4378 12.8786C9.28992 10.8674 9.62046 9.03069 11.0612 7.72105C12.7875 6.15237 15.8845 6.4438 17.106 8.29312C17.3737 8.69968 17.5425 9.14402 17.5354 9.64053C17.9054 10.2288 18.0132 10.8728 17.8515 11.5366C17.5731 12.6862 17.839 13.7223 18.3958 14.7262C19.497 16.7158 20.7599 18.6083 21.8934 20.5799C22.9533 22.4203 23.9197 24.3128 25.082 26.0919C25.3712 26.5363 25.5006 27.0166 25.2634 27.5365Z" fill="#FDFBFB"/>
<path d="M25.2633 27.5365C25.2795 26.7737 24.8448 26.2071 24.4783 25.5882C23.2352 23.4799 22.0586 21.3319 20.8226 19.2199C19.8724 17.5973 18.8197 16.0376 17.9538 14.3646C17.4939 13.4759 17.3448 12.5566 17.6215 11.5906C17.8137 10.925 17.5406 10.2918 17.5317 9.64233C17.6233 9.72688 17.7131 9.81323 17.8047 9.89779C17.8945 9.92837 17.9592 9.98773 17.9987 10.0741C18.1137 10.5094 18.1388 10.9574 18.1945 11.3999C18.1819 12.312 18.6077 13.0729 19.046 13.8249C20.8711 16.9515 22.7538 20.0457 24.6023 23.1578C24.9094 23.6741 25.1537 24.221 25.4591 24.7355C25.8777 25.4407 26.0304 26.1621 25.7789 26.9536C25.6082 27.1479 25.4358 27.3422 25.2633 27.5365Z" fill="#E4E3E4"/>
<path d="M25.7801 26.9536C25.8628 25.2087 24.767 23.9368 23.973 22.5588C22.1407 19.3801 20.2527 16.2337 18.3916 13.0711C18.106 12.5836 17.9066 12.0655 18.0557 11.4809C18.5856 11.4215 18.7886 11.8317 18.9772 12.1843C20.7251 15.4511 22.7083 18.5813 24.5191 21.8122C25.0418 22.7459 25.7478 23.5734 26.1215 24.5934C26.5508 25.4587 26.0209 26.1855 25.7801 26.9536Z" fill="#CFCFD0"/>
<path d="M26.122 24.5933C24.6184 22.7296 23.6052 20.5619 22.3729 18.5309C21.1064 16.4423 19.8759 14.3339 18.7388 12.1698C18.5861 11.8784 18.3508 11.6427 18.0544 11.4808C17.8927 11.0167 17.8208 10.5417 17.8675 10.0506C17.9753 9.9301 18.0867 9.9373 18.1999 10.0434C19.813 13.5118 22.0298 16.6276 23.9232 19.9323C24.5878 21.0908 25.2651 22.2421 25.9369 23.397C26.0375 23.791 26.1866 24.176 26.122 24.5933Z" fill="#B2B5B6"/>
<path d="M16.4252 42.2501C16.9803 42.0144 17.4276 41.7859 17.9 41.633C18.8881 41.3128 19.6066 41.6384 19.9982 42.5972C20.5821 44.031 20.3898 45.5457 20.4078 47.0371C20.4114 47.3897 20.1563 47.3645 19.9084 47.3807C19.5599 47.4022 19.4324 47.2637 19.4396 46.9129C19.4575 45.9253 19.4898 44.9341 19.4378 43.9483C19.4108 43.4356 19.4988 42.8167 18.9725 42.4713C18.5018 42.1637 17.9827 42.2644 17.5318 42.5487C17.0521 42.8527 16.4054 43.0236 16.4198 43.7936C16.436 44.6319 16.4737 45.4756 16.4001 46.3085C16.3677 46.6701 16.8348 47.3537 15.9402 47.3771C15.0635 47.3986 15.4174 46.7258 15.412 46.3427C15.3797 44.2451 15.3474 42.1457 15.421 40.0517C15.4498 39.2134 15.1695 39.0947 14.424 39.1001C9.93484 39.1343 5.44565 39.1199 0.95647 39.1127C0.604378 39.1127 0.133723 39.2836 0.142705 38.6144C0.148094 38.2438 0.227135 38.0441 0.638509 38.0891C0.845094 38.1125 1.05707 38.0927 1.26725 38.0927C45.3795 38.0927 89.4917 38.0927 133.604 38.0927C133.663 38.0927 133.73 38.0747 133.782 38.0963C134.087 38.215 134.667 37.7887 134.678 38.4561C134.687 39.1325 134.098 38.8195 133.796 38.8195C114.763 38.8356 95.7287 38.8392 76.696 38.8159C75.9002 38.8141 75.6433 38.9796 75.6666 39.8215C75.7313 42.0971 75.6954 44.3746 75.681 46.6521C75.6792 46.8877 75.8499 47.2331 75.487 47.3483C75.1349 47.4616 75.0038 47.3087 74.9121 46.9147C74.8187 46.5154 74.5331 46.8931 74.393 46.9795C73.6636 47.4238 72.9631 47.7836 72.0433 47.503C70.8882 47.1522 70.1822 46.4074 69.9721 45.2687C69.7457 44.0328 69.9254 42.8257 71.0499 42.0576C72.0307 41.3884 73.1265 41.4081 74.199 41.9244C74.4056 42.0252 74.6068 42.1367 74.9768 42.3292C74.9768 41.347 74.975 40.4979 74.9768 39.647C74.9768 39.1019 74.6139 38.9076 74.163 38.8842C73.3565 38.841 72.5319 38.7349 71.7451 38.8572C68.7074 39.3286 65.6517 39.1667 62.6051 39.1685C47.5225 39.1756 32.4382 39.1487 17.3557 39.0965C16.5348 39.0929 16.3336 39.3214 16.409 40.0805C16.4773 40.7623 16.4252 41.4549 16.4252 42.2501ZM74.9427 44.5977C74.966 43.4104 73.9565 42.3832 72.7313 42.3454C71.517 42.3076 70.6816 43.2017 70.6745 44.5473C70.6673 45.7742 71.5313 46.7043 72.6954 46.7222C73.8379 46.742 74.9211 45.7184 74.9427 44.5977Z" fill="white"/>
<path d="M133.864 46.429C133.262 46.9039 132.77 47.2979 132.067 47.3573C130.54 47.485 129.441 46.7744 128.96 45.2435C128.507 43.8061 129.001 42.4929 130.341 41.8489C131.302 41.3865 132.303 41.4621 133.271 41.9514C133.483 42.0593 133.88 42.626 133.948 41.8039C133.966 41.5772 134.209 41.6006 134.385 41.606C134.672 41.6132 134.706 41.8129 134.701 42.0414C134.652 43.8961 134.832 45.758 134.602 47.6073C134.448 48.8576 133.591 49.6527 132.297 49.8884C131.194 50.0899 129.897 49.5412 129.436 48.6453C129.324 48.4294 129.046 48.129 129.314 47.9257C129.565 47.7368 129.874 47.9473 130.108 48.1434C130.519 48.4888 130.673 49.0968 131.401 49.1094C133.14 49.1382 133.828 48.478 133.864 46.429ZM129.642 44.4591C129.664 45.6896 130.611 46.6197 131.803 46.5837C133.045 46.5477 133.912 45.5601 133.849 44.2559C133.79 43.0308 133.097 42.3454 131.952 42.3814C130.562 42.4245 129.621 43.27 129.642 44.4591Z" fill="white" fill-opacity="0.945098"/>
<path d="M96.3354 46.7277C95.827 46.9004 95.342 47.1127 94.8336 47.2296C93.5941 47.5174 92.5522 47.1451 91.9755 46.2618C91.2965 45.222 91.2785 43.5975 91.9342 42.6999C92.6312 41.7464 93.9084 41.3542 95.1408 41.7284C95.3959 41.8058 95.6438 41.9173 95.8845 42.0306C96.1503 42.1566 96.418 42.4012 96.4539 41.8238C96.4719 41.5341 96.7593 41.5863 96.9587 41.6097C97.1815 41.6367 97.2174 41.8148 97.2138 42.0091C97.1833 43.9213 97.4473 45.8426 97.0881 47.7423C96.7144 49.7194 94.2498 50.6602 92.6079 49.4693C92.2504 49.2102 92.0564 48.8523 92.0079 48.4133C91.9827 48.192 91.821 47.9096 92.2001 47.8466C92.4336 47.8071 92.6617 47.8125 92.7713 48.1291C93.0264 48.8703 93.5294 49.1455 94.3432 49.1077C95.8036 49.043 96.4342 48.3647 96.3354 46.7277ZM94.6252 42.3868C93.2582 42.2915 92.4067 42.9355 92.2989 44.1444C92.1821 45.4433 93.0246 46.4956 94.2426 46.5766C95.6384 46.6701 96.2545 45.9991 96.3857 44.2452C96.4611 43.2179 95.7497 42.466 94.6252 42.3868Z" fill="white"/>
<path d="M84.833 45.686C84.4773 46.8877 83.5288 47.5569 82.23 47.5336C80.7911 47.5084 79.5929 46.5729 79.2875 45.2399C78.9103 43.5921 79.6881 42.1799 81.2312 41.7139C82.9648 41.1905 84.3659 41.8435 85.0055 43.4733C85.3719 44.407 85.1492 44.8207 84.1198 44.8873C83.139 44.9503 82.1492 44.8747 81.1648 44.9035C80.8486 44.9125 80.3402 44.6606 80.245 45.096C80.1534 45.5097 80.3905 45.9739 80.7552 46.2779C81.3803 46.8032 83.2468 46.6737 83.8144 46.0638C84.0983 45.758 84.4037 45.5781 84.833 45.686ZM83.6258 44.0976C84.1935 44.1299 84.2079 43.8691 84.0408 43.4427C83.7354 42.6638 83.1282 42.4083 82.345 42.3742C81.454 42.3364 80.7678 42.608 80.3887 43.4715C80.2127 43.8727 80.157 44.1443 80.757 44.0976C81.233 44.0616 81.7127 44.0904 82.1905 44.0904C82.6683 44.0904 83.148 44.0688 83.6258 44.0976Z" fill="white"/>
<path d="M111.391 45.9091C110.864 46.6683 110.187 47.226 109.275 47.4383C108.013 47.7333 106.878 47.2979 106.221 46.2959C105.491 45.1824 105.509 43.7216 106.264 42.6782C106.986 41.6816 108.121 41.356 109.558 41.7626C110.457 42.0162 111.198 42.4803 111.515 43.4266C111.816 44.3297 111.434 44.8694 110.478 44.8784C109.434 44.8873 108.387 44.9197 107.345 44.8658C106.686 44.8316 106.657 45.1392 106.79 45.6177C106.909 46.0477 107.166 46.4182 107.606 46.4848C108.606 46.6359 109.641 46.8032 110.453 45.9451C110.767 45.6087 111.058 45.6213 111.391 45.9091ZM110.173 44.094C110.518 44.1048 110.66 44.0292 110.55 43.6371C110.327 42.8347 109.709 42.4534 108.621 42.367C107.699 42.2933 107.162 42.7772 106.787 43.4968C106.607 43.8422 106.724 44.1264 107.219 44.0958C107.695 44.067 108.173 44.0886 108.649 44.0886C109.16 44.0904 109.666 44.0796 110.173 44.094Z" fill="white"/>
<path d="M51.3591 44.8784C50.822 44.8784 50.2813 44.9108 49.746 44.8694C49.1765 44.8262 49.1747 45.1015 49.2933 45.5152C49.4675 46.1251 49.8448 46.5136 50.4861 46.5532C51.4112 46.6108 52.3507 46.6863 53.0423 45.8498C53.2507 45.5962 53.5633 45.6106 53.7519 45.8318C53.9657 46.0819 53.6405 46.2222 53.5076 46.3697C52.2483 47.7621 50.231 47.924 49.0508 46.7367C47.822 45.5008 47.9101 43.3007 49.2358 42.1728C50.6298 40.9855 53.4483 41.7212 53.9926 43.4158C54.2998 44.3747 53.9639 44.8622 52.9723 44.8766C52.4352 44.8856 51.898 44.8784 51.3591 44.8784ZM52.6364 44.0958C53.0765 44.1156 53.1627 43.9249 53.0154 43.5598C52.7352 42.8726 52.2591 42.457 51.4831 42.3976C50.6801 42.3347 49.9364 42.3491 49.4747 43.1712C49.0615 43.907 49.1496 44.085 49.9633 44.0922C50.3496 44.0958 50.7358 44.0922 51.122 44.0922C51.6268 44.0904 52.1316 44.0725 52.6364 44.0958Z" fill="white"/>
<path d="M117.668 45.7203C117.178 47.2422 115.638 47.9815 114.097 47.4365C112.818 46.9831 111.934 45.3083 112.193 43.8242C112.421 42.5145 113.782 41.4981 115.236 41.5521C116.651 41.6043 117.702 42.6333 117.898 44.1156C117.972 44.6715 117.873 44.9251 117.221 44.8964C115.996 44.8406 114.767 44.8964 113.542 44.873C112.976 44.8622 112.956 45.0798 113.152 45.517C113.693 46.7277 115.674 47.0533 116.587 46.0693C116.955 45.6681 116.955 45.6681 117.668 45.7203ZM115.451 42.3814C114.154 42.2969 113.68 42.5343 113.204 43.5435C113.051 43.8674 112.936 44.0994 113.464 44.094C114.655 44.0814 115.848 44.0904 117.129 44.0904C116.781 43.2143 116.497 42.4498 115.451 42.3814Z" fill="white"/>
<path d="M30.6177 45.6771C30.6267 46.2941 30.3159 46.7295 29.8614 47.0173C28.7908 47.6955 27.659 47.7225 26.5615 47.0929C25.3273 46.3877 25.0758 45.2094 25.2267 43.9195C25.3633 42.7538 26.1321 42.054 27.1902 41.714C28.9417 41.1509 30.2782 41.8615 30.9249 43.6281C31.2536 44.5258 31.0794 44.8352 30.1021 44.8838C29.1195 44.9323 28.1315 44.8712 27.1471 44.8982C26.8255 44.9072 26.2974 44.6751 26.2201 45.0942C26.1321 45.571 26.3333 46.0927 26.8417 46.3823C27.4596 46.7331 29.0998 46.6359 29.6674 46.1952C29.9441 45.9829 30.1758 45.7023 30.6177 45.6771ZM29.5345 44.0976C30.1704 44.1372 30.1435 43.8728 29.9369 43.4068C29.5381 42.5092 28.7836 42.4012 27.9357 42.367C27.1201 42.3347 26.6656 42.806 26.3064 43.4158C26.0333 43.8782 26.1734 44.1354 26.7555 44.0976C27.2028 44.0688 27.6519 44.0922 28.101 44.0922C28.5788 44.0922 29.0584 44.067 29.5345 44.0976Z" fill="white"/>
<path d="M5.05023 42.2213C5.21729 42.0162 5.0628 41.5089 5.58914 41.6007C6.12088 41.6924 5.90531 42.1098 5.9089 42.3868C5.93046 43.8242 5.92507 45.2633 5.91249 46.7007C5.9107 46.9417 6.04543 47.2817 5.64842 47.3609C5.33406 47.4239 5.18855 47.3051 5.11849 46.9471C5.03765 46.5352 4.79873 46.9022 4.69813 46.9705C4.19694 47.3105 3.68676 47.6055 3.05982 47.6145C1.95684 47.6307 1.03529 47.2655 0.586191 46.1988C0.0688304 44.9719 -0.166497 43.6982 0.785591 42.5577C1.60115 41.5791 2.69875 41.41 3.87898 41.7338C4.27598 41.8453 4.64783 42.0504 5.05023 42.2213ZM0.940081 44.6571C0.950859 45.8768 1.76462 46.7097 2.93408 46.7025C4.19155 46.6953 5.13825 45.7976 5.14184 44.6103C5.14543 43.3402 4.15562 42.3436 2.88737 42.3436C1.75385 42.3436 0.927506 43.3258 0.940081 44.6571Z" fill="white"/>
<path d="M63.1636 44.4933C63.1636 45.2399 63.133 45.9882 63.1726 46.733C63.2049 47.3249 62.9121 47.4904 62.5061 47.1863C62.0983 46.8805 61.8845 46.9723 61.5253 47.2313C60.8085 47.7458 60.0271 47.7062 59.2349 47.3465C57.769 46.679 57.0271 44.8675 57.6109 43.3492C58.1822 41.8633 59.7414 41.2372 61.3815 41.8381C61.6043 41.919 61.8324 41.9964 62.0372 42.1133C62.2726 42.25 62.4235 42.2878 62.4109 41.9388C62.3965 41.5664 62.6588 41.5898 62.8977 41.6024C63.2139 41.6204 63.1564 41.874 63.1582 42.0701C63.1672 42.8797 63.1636 43.6874 63.1636 44.4933ZM58.3331 44.5869C58.3061 45.7958 59.0929 46.6916 60.2319 46.7528C61.369 46.814 62.3696 45.7994 62.4288 44.5239C62.4881 43.2484 61.6564 42.4371 60.2372 42.3832C59.1199 42.34 58.3618 43.2179 58.3331 44.5869Z" fill="white"/>
</g>
<defs>
<clipPath id="clip0_102_21461">
<rect width="134.722" height="50" fill="white"/>
</clipPath>
</defs>
</svg>
