<svg width="135" height="46" viewBox="0 0 135 46" fill="none" xmlns="http://www.w3.org/2000/svg">
<g clip-path="url(#clip0_892_4715)">
<path d="M54.2209 13.7672C55.2375 14.4561 56.0988 15.4228 56.8049 16.6651C57.5085 17.9074 57.8627 19.563 57.8627 21.6295C57.8627 23.696 57.2513 25.5677 56.0309 27.2494C53.7769 30.4086 50.3463 31.9858 45.7437 31.9858C43.7396 31.9858 41.7574 31.6746 39.8019 31.0523C37.8439 30.4299 36.3955 29.8005 35.4565 29.1615L34.0469 28.2542L36.0679 23.9192C38.3219 25.095 40.3575 25.6841 42.1747 25.6841C43.9895 25.6841 44.8994 25.0618 44.8994 23.8195C44.8994 23.114 44.5476 22.4513 43.8415 21.829C43.1379 21.2067 42.2742 20.6105 41.2576 20.0404C40.2386 19.4703 39.222 18.8052 38.2054 18.0499C37.1864 17.2945 36.3275 16.2352 35.6215 14.8741C34.9179 13.5131 34.5637 11.9264 34.5637 10.1116C34.5637 6.88599 35.7137 4.43469 38.0162 2.75298C40.3187 1.07364 43.0967 0.232788 46.3527 0.232788C48.2937 0.232788 50.1182 0.48457 51.8238 0.988132C53.5295 1.4917 54.7426 1.99526 55.4632 2.5012L56.5914 3.25654L54.7596 7.5392C53.1631 6.80048 51.5569 6.42994 49.9459 6.42994C48.3325 6.42994 47.527 7.08552 47.527 8.39431C47.527 9.09977 47.8788 9.73873 48.5848 10.3088C49.2884 10.8812 50.1497 11.4252 51.1687 11.9478C52.1853 12.4727 53.2019 13.0784 54.2209 13.7672Z" fill="white"/>
<path d="M86.6548 0.940674L87.5938 10.5155L80.0312 8.90267L77.918 31.4799H68.759L66.6458 8.90267L59.0371 10.5155L59.9761 0.940674H86.6548Z" fill="white"/>
<path d="M110.373 31.4799L108.495 26.3896H96.5169L94.7312 31.4799H88.0615L96.0001 0.940674H112.722L120.66 31.4799H110.373ZM106.101 19.8385L102.391 9.76015L98.8194 19.8385H106.101Z" fill="white"/>
<path d="M24.2933 2.0735C25.3608 2.31103 26.159 2.99036 26.9524 3.65069C33.5323 9.12575 34.43 17.4417 31.3245 23.4915C28.6969 28.6127 24.218 31.4155 18.4363 32.1994C8.598 33.5367 0.623003 25.7481 0.0382826 17.1614C-0.318372 11.9096 1.77061 7.64832 5.66955 4.14713C8.53735 1.56756 11.9705 0.332403 15.8257 0.142379C16.2285 0.123377 16.6191 -0.111777 17.0291 0.0639945C17.1577 1.57706 17.1383 3.0925 17.0364 4.60794C16.7865 5.66019 16.9733 6.73145 16.9127 7.79321C16.8933 8.15901 17.3203 10.1865 17.0364 10.5C16.8496 10.6164 16.3425 8.93098 16.1824 8.80509C16.0853 8.70532 16.0271 8.58181 15.9956 8.45117C15.5637 6.71008 14.0012 6.18513 12.6716 6.19939C11.0946 6.21839 9.68253 7.35853 9.338 8.78371C9.10994 9.72908 9.40836 10.6008 9.77715 11.4535C10.1338 12.2778 10.6482 13.0165 11.1261 13.7742C13.2733 17.1709 15.2604 20.6626 17.3931 24.0711C18.4363 25.7386 19.7417 26.2754 21.5904 25.8407C22.2625 25.6839 22.8205 25.3728 23.1796 24.7718C23.3349 24.5486 23.5484 24.3704 23.6867 24.1353C23.9172 23.4915 24.2277 22.8597 23.9851 22.1471C23.9609 21.7766 23.8444 21.4132 23.8735 21.0355C23.9196 20.817 23.9681 20.5984 24.0239 20.3823C24.1647 19.3229 24.0846 18.2611 24.0628 17.2018C24.0506 12.5462 24.0555 7.8906 24.0603 3.23739C24.0603 2.83597 23.9997 2.41791 24.2933 2.0735Z" fill="#009C66"/>
<path d="M24.2942 2.07366C24.3015 7.14017 24.3112 12.2067 24.3185 17.2732C24.0977 18.3516 24.3621 19.449 24.1802 20.5297C24.1438 20.7197 24.1923 20.9383 23.9885 21.0713C23.6779 21.0618 23.5954 20.8076 23.4741 20.6034C21.5113 17.2518 19.4053 13.9834 17.4061 10.6532C17.064 10.0832 16.637 9.51309 16.7656 8.77675C16.8214 7.40383 16.6953 6.02853 16.8311 4.66036C16.8408 3.40858 16.8433 2.15442 16.8627 0.900268C16.8675 0.617607 16.7656 0.304068 17.0349 0.0712891C19.0123 0.206681 20.9533 0.52022 22.8021 1.25419C23.331 1.45846 23.8599 1.68649 24.2942 2.07366Z" fill="#08603F"/>
<path d="M23.3598 24.8028C22.5398 26.3515 19.8054 26.7054 18.2914 25.4441C17.9785 25.1852 17.6679 24.8859 17.4617 24.5463C14.8413 20.2351 12.1943 15.9358 9.64923 11.5843C8.58654 9.76955 8.89225 8.11397 10.2267 6.93345C11.8231 5.51777 14.6861 5.78143 15.8167 7.44889C16.0642 7.81468 16.2194 8.21611 16.2146 8.66504C16.5567 9.19473 16.5 9 16.5 9C17 10 18 11.5 18.5 12.5C19.519 14.2957 20.9519 16.2209 22 18C22.9802 19.6603 22.9252 19.3943 24 21C24.2693 21.3967 24.5 23.5 23.3598 24.8028Z" fill="#FEFCFC"/>
<path d="M133.964 34.9216H0V35.3967H133.964V34.9216Z" fill="white"/>
<path d="M5.1895 43.0546C4.97114 43.3634 4.67272 43.6057 4.29908 43.7815C3.92544 43.9572 3.52269 44.0451 3.09082 44.0451C2.28774 44.0451 1.6181 43.7767 1.08433 43.2375C0.550561 42.6983 0.28125 42.0356 0.28125 41.2446C0.28125 40.4418 0.555413 39.7696 1.10131 39.2304C1.64721 38.6912 2.33141 38.4204 3.15147 38.4204C3.57364 38.4204 3.95941 38.5035 4.31121 38.6722C4.66301 38.8408 4.95658 39.0807 5.18708 39.3967V38.5392H5.8737V43.9026H5.18708V43.0546H5.1895ZM5.1895 41.1876C5.1895 40.6199 4.98085 40.1211 4.56596 39.6983C4.15108 39.2755 3.67311 39.0617 3.13206 39.0617C2.54492 39.0617 2.04269 39.2731 1.63023 39.6983C1.21777 40.1235 1.00912 40.6484 1.00912 41.2755C1.00912 41.8741 1.21535 42.3777 1.62538 42.791C2.03541 43.2043 2.53279 43.4085 3.11023 43.4085C3.66826 43.4085 4.1535 43.1924 4.56596 42.7577C4.98327 42.3206 5.1895 41.7981 5.1895 41.1876Z" fill="white"/>
<path d="M7.69085 43.9049H6.97754V38.5415H7.6399V39.1615C7.81216 38.9239 8.00141 38.7505 8.20521 38.6389C8.40901 38.5273 8.64678 38.4703 8.92095 38.4631L8.9258 39.209C8.48422 39.247 8.16882 39.3776 7.97714 39.5962C7.78547 39.8147 7.69085 40.1734 7.69085 40.6674V43.9049Z" fill="white"/>
<path d="M13.9215 40.1877C13.7056 39.7982 13.4436 39.5084 13.133 39.3231C12.8224 39.1354 12.4537 39.0428 12.0242 39.0428C11.4589 39.0428 10.9809 39.2518 10.5879 39.6723C10.1948 40.0927 9.99831 40.6105 9.99831 41.2281C9.99831 41.8457 10.1948 42.3611 10.5903 42.7768C10.9858 43.1925 11.4735 43.3991 12.0558 43.3991C12.4803 43.3991 12.8564 43.297 13.1815 43.0927C13.5066 42.8884 13.7541 42.601 13.9239 42.2305H14.7003C14.4868 42.8124 14.1544 43.2613 13.6983 43.582C13.2422 43.9003 12.706 44.0594 12.0897 44.0594C11.2963 44.0594 10.6267 43.7839 10.0808 43.2328C9.53491 42.6818 9.26074 42.0167 9.26074 41.24C9.26074 40.4466 9.53733 39.7744 10.0905 39.2233C10.6437 38.6723 11.3158 38.3967 12.1091 38.3967C12.7036 38.3967 13.2276 38.5535 13.6813 38.867C14.135 39.1806 14.4747 39.6224 14.7003 40.1901H13.9215V40.1877Z" fill="white"/>
<path d="M15.71 36.8052H16.4014V39.171C16.6028 38.9263 16.8479 38.7434 17.1317 38.6199C17.4156 38.4964 17.7334 38.4346 18.0852 38.4346C18.8543 38.4346 19.4172 38.6508 19.769 39.0807C20.1208 39.5106 20.298 40.2114 20.298 41.1805V43.9073H19.6041V41.171C19.6041 40.3943 19.4852 39.8527 19.245 39.5486C19.0048 39.2446 18.6069 39.0926 18.044 39.0926C17.7262 39.0926 17.4447 39.1543 17.2045 39.2802C16.9643 39.4061 16.7726 39.5843 16.6344 39.8194C16.547 39.9667 16.4864 40.133 16.4524 40.3182C16.4184 40.5059 16.4014 40.8313 16.4014 41.2969V43.9049H15.71V36.8052Z" fill="white"/>
<path d="M22.1245 37.9121H21.4233V36.8052H22.1245V37.9121ZM21.4209 43.9049V38.5415H22.1221V43.9049H21.4209Z" fill="white"/>
<path d="M23.7381 43.905V39.2328H22.6973V38.5392H23.7381V36.8029H24.4393V38.5392H25.4801V39.2328H24.4393V43.905H23.7381Z" fill="white"/>
<path d="M31.4196 41.4418H26.4725C26.5162 42.0262 26.7321 42.4965 27.1203 42.8575C27.5085 43.2186 27.9938 43.3967 28.5736 43.3967C28.9861 43.3967 29.3549 43.2922 29.6848 43.0832C30.0124 42.8742 30.2671 42.5844 30.4467 42.2114H31.2449C30.9926 42.8053 30.6383 43.2613 30.1822 43.5772C29.7261 43.8955 29.1972 44.0547 28.5955 44.0547C27.7997 44.0547 27.1252 43.7768 26.5744 43.2209C26.0237 42.6651 25.7471 41.9977 25.7471 41.2162C25.7471 40.4015 26.0164 39.7269 26.5574 39.1924C27.0961 38.6604 27.7875 38.392 28.627 38.392C29.4495 38.392 30.1216 38.6699 30.6408 39.2233C31.16 39.7791 31.4196 40.4989 31.4196 41.3872V41.4418ZM30.6408 40.8409C30.5073 40.2447 30.2647 39.7958 29.908 39.4941C29.5538 39.1924 29.0904 39.0428 28.5178 39.0428C27.9865 39.0428 27.5376 39.2043 27.1688 39.5297C26.8001 39.8551 26.5744 40.2922 26.4919 40.8433H30.6408V40.8409Z" fill="white"/>
<path d="M36.609 40.1877C36.3931 39.7982 36.1311 39.5084 35.8205 39.3231C35.5099 39.1354 35.1412 39.0428 34.7117 39.0428C34.1464 39.0428 33.6684 39.2518 33.2754 39.6723C32.8823 40.0927 32.6858 40.6105 32.6858 41.2281C32.6858 41.8457 32.8823 42.3611 33.2778 42.7768C33.6733 43.1925 34.161 43.3991 34.7433 43.3991C35.1678 43.3991 35.5439 43.297 35.869 43.0927C36.1941 42.8884 36.4416 42.601 36.6114 42.2305H37.3878C37.1743 42.8124 36.8419 43.2613 36.3858 43.582C35.9297 43.9003 35.3959 44.0594 34.7772 44.0594C33.9838 44.0594 33.3142 43.7839 32.7683 43.2328C32.2224 42.6818 31.9482 42.0167 31.9482 41.24C31.9482 40.4466 32.2248 39.7744 32.778 39.2233C33.3312 38.6723 34.0033 38.3967 34.7966 38.3967C35.3911 38.3967 35.9151 38.5535 36.3688 38.867C36.8225 39.1806 37.1622 39.6224 37.3878 40.1901H36.609V40.1877Z" fill="white"/>
<path d="M38.8846 43.905V39.2328H37.8438V38.5392H38.8846V36.8029H39.5858V38.5392H40.6266V39.2328H39.5858V43.905H38.8846Z" fill="white"/>
<path d="M41.1709 38.5392H41.8624V41.3872C41.8624 42.1188 41.9837 42.6366 42.2263 42.9406C42.4689 43.2446 42.8668 43.3967 43.4224 43.3967C43.7378 43.3967 44.0144 43.3349 44.2546 43.209C44.4948 43.0831 44.6865 42.9026 44.8321 42.6651C44.9146 42.5249 44.9752 42.361 45.0116 42.171C45.048 41.981 45.0674 41.6508 45.0674 41.1781V38.5392H45.7686V43.9026H45.0674V43.323C44.8539 43.5772 44.6186 43.7601 44.3541 43.8741C44.0921 43.9881 43.7742 44.0451 43.403 44.0451C42.6121 44.0451 42.0443 43.8361 41.695 43.418C41.3456 43 41.1709 42.3064 41.1709 41.3397V38.5392Z" fill="white"/>
<path d="M47.5854 43.9049H46.8721V38.5415H47.5344V39.1615C47.7067 38.9239 47.8959 38.7505 48.0997 38.6389C48.3035 38.5273 48.5413 38.4703 48.8155 38.4631L48.8203 39.209C48.3788 39.247 48.0633 39.3776 47.8717 39.5962C47.68 39.8147 47.5854 40.1734 47.5854 40.6674V43.9049Z" fill="white"/>
<path d="M54.8083 41.4418H49.8612C49.9049 42.0262 50.1208 42.4965 50.509 42.8575C50.8972 43.2186 51.3824 43.3967 51.9623 43.3967C52.3748 43.3967 52.7435 43.2922 53.0735 43.0832C53.401 42.8742 53.6558 42.5844 53.8353 42.2114H54.6336C54.3812 42.8053 54.027 43.2613 53.5709 43.5772C53.1148 43.8955 52.5858 44.0547 51.9841 44.0547C51.1883 44.0547 50.5138 43.7768 49.9631 43.2209C49.4123 42.6651 49.1357 41.9977 49.1357 41.2162C49.1357 40.4015 49.4051 39.7269 49.9461 39.1924C50.4847 38.6604 51.1762 38.392 52.0157 38.392C52.8382 38.392 53.5102 38.6699 54.0294 39.2233C54.5486 39.7791 54.8083 40.4989 54.8083 41.3872V41.4418ZM54.0319 40.8409C53.8984 40.2447 53.6558 39.7958 53.2991 39.4941C52.9449 39.1924 52.4815 39.0428 51.9089 39.0428C51.3776 39.0428 50.9287 39.2043 50.5599 39.5297C50.1911 39.8551 49.9655 40.2922 49.883 40.8433H54.0319V40.8409Z" fill="white"/>
<path d="M63.1207 43.0546C62.9023 43.3634 62.6039 43.6057 62.2302 43.7815C61.8566 43.9572 61.4539 44.0451 61.022 44.0451C60.2189 44.0451 59.5493 43.7767 59.0155 43.2375C58.4817 42.6983 58.2148 42.0356 58.2148 41.2446C58.2148 40.4418 58.489 39.7696 59.0349 39.2304C59.5808 38.6912 60.265 38.4204 61.0851 38.4204C61.5072 38.4204 61.893 38.5035 62.2448 38.6722C62.5966 38.8408 62.8902 39.0807 63.1207 39.3967V38.5392H63.8097V43.9026H63.1231V43.0546H63.1207ZM63.1207 41.1876C63.1207 40.6199 62.912 40.1211 62.4971 39.6983C62.0822 39.2731 61.6043 39.0617 61.0632 39.0617C60.4761 39.0617 59.9739 39.2731 59.5614 39.6983C59.1489 40.1235 58.9403 40.6484 58.9403 41.2755C58.9403 41.8741 59.1465 42.3777 59.559 42.791C59.9714 43.2019 60.4664 43.4085 61.0438 43.4085C61.6019 43.4085 62.0871 43.1924 62.4996 42.7577C62.9144 42.3206 63.1207 41.7981 63.1207 41.1876Z" fill="white"/>
<path d="M64.9184 38.5391H65.6002V39.1496C65.8161 38.9049 66.066 38.7244 66.3499 38.608C66.6338 38.4916 66.9589 38.4323 67.3228 38.4323C67.7256 38.4323 68.0822 38.5059 68.3952 38.6508C68.7082 38.798 68.9581 39.0071 69.1401 39.2802C69.2662 39.4726 69.356 39.6983 69.4118 39.9548C69.4676 40.2137 69.4943 40.5938 69.4943 41.0973V43.9002H68.8028V40.8954C68.8028 40.2612 68.6791 39.8004 68.4316 39.5154C68.1841 39.228 67.7887 39.0855 67.2428 39.0855C66.9249 39.0855 66.6435 39.1472 66.4033 39.2731C66.1631 39.399 65.9714 39.5771 65.8331 39.8123C65.7458 39.9596 65.6851 40.1258 65.6512 40.3111C65.6172 40.4964 65.5978 40.8242 65.5978 41.2897V43.8978H64.916V38.5391H64.9184Z" fill="white"/>
<path d="M75.2204 39.3895V38.1947V36.8052H75.9289V43.9049H75.2204V43.095C74.9753 43.3942 74.6696 43.627 74.3033 43.7957C73.9394 43.9643 73.5512 44.0475 73.1435 44.0475C72.3526 44.0475 71.6878 43.7743 71.1468 43.228C70.6057 42.6817 70.334 42.0118 70.334 41.2185C70.334 40.4323 70.6009 39.7695 71.1371 39.2304C71.6708 38.6912 72.3405 38.4228 73.1435 38.4228C73.5754 38.4228 73.9685 38.5059 74.3227 38.6698C74.6745 38.8337 74.9753 39.0736 75.2204 39.3895ZM75.2398 41.2755C75.2398 40.665 75.0336 40.1425 74.6187 39.7102C74.2062 39.2779 73.7186 39.0617 73.163 39.0617C72.5855 39.0617 72.0906 39.2684 71.6781 39.6793C71.2656 40.0902 71.0594 40.5938 71.0594 41.1876C71.0594 41.8147 71.2657 42.342 71.6805 42.7672C72.093 43.1924 72.5952 43.4061 73.1824 43.4061C73.7234 43.4061 74.2014 43.1924 74.6163 42.7672C75.0312 42.342 75.2398 41.8456 75.2398 41.2755Z" fill="white"/>
<path d="M85.2912 41.4418H80.3441C80.3878 42.0262 80.6037 42.4965 80.9919 42.8575C81.3801 43.2186 81.8653 43.3967 82.4452 43.3967C82.8576 43.3967 83.2264 43.2922 83.5564 43.0832C83.8864 42.8742 84.1387 42.5844 84.3182 42.2114H85.114C84.8617 42.8053 84.5075 43.2613 84.0513 43.5772C83.5952 43.8932 83.0663 44.0547 82.4646 44.0547C81.6664 44.0547 80.9943 43.7768 80.4436 43.2209C79.8928 42.6651 79.6162 41.9977 79.6162 41.2162C79.6162 40.4015 79.8855 39.7269 80.4266 39.1924C80.9652 38.6604 81.6567 38.392 82.4961 38.392C83.3186 38.392 83.9907 38.6699 84.5099 39.2233C85.0291 39.7791 85.2887 40.4989 85.2887 41.3872V41.4418H85.2912ZM84.5123 40.8409C84.3789 40.2447 84.1363 39.7958 83.7796 39.4941C83.423 39.1924 82.962 39.0428 82.3894 39.0428C81.858 39.0428 81.4092 39.2043 81.0404 39.5297C80.6716 39.8528 80.446 40.2922 80.3635 40.8433H84.5123V40.8409Z" fill="white"/>
<path d="M86.0971 38.5391H86.7789V39.1496C86.9949 38.9049 87.2448 38.7244 87.5286 38.608C87.8125 38.4916 88.1376 38.4323 88.5015 38.4323C88.9043 38.4323 89.2609 38.5059 89.5739 38.6508C89.8869 38.798 90.1368 39.0071 90.3188 39.2802C90.4449 39.4726 90.5347 39.6983 90.5905 39.9548C90.6463 40.2137 90.673 40.5938 90.673 41.0973V43.9002H89.9815V40.8954C89.9815 40.2612 89.8578 39.8004 89.6103 39.5154C89.3628 39.228 88.9674 39.0855 88.4215 39.0855C88.1036 39.0855 87.8222 39.1472 87.582 39.2731C87.3418 39.399 87.1501 39.5771 87.0118 39.8123C86.9245 39.9596 86.8638 40.1258 86.8299 40.3111C86.7959 40.4964 86.7765 40.8242 86.7765 41.2897V43.8978H86.0947V38.5391H86.0971Z" fill="white"/>
<path d="M92.7276 44.342C92.8344 44.6532 93.026 44.8978 93.3051 45.0712C93.5841 45.2446 93.9237 45.3325 94.3216 45.3325C94.9452 45.3325 95.4474 45.1282 95.8235 44.7221C96.1995 44.3159 96.3888 43.7719 96.3888 43.0926V42.9525C96.1243 43.3064 95.821 43.5748 95.4814 43.7553C95.1417 43.9358 94.7681 44.0261 94.3605 44.0261C93.538 44.0261 92.8538 43.7577 92.3079 43.2185C91.762 42.6817 91.4902 42.0095 91.4902 41.2066C91.4902 40.4156 91.7595 39.7529 92.2982 39.2161C92.8368 38.6793 93.5016 38.4109 94.2949 38.4109C94.7559 38.4109 95.1563 38.4916 95.4935 38.6555C95.8308 38.8171 96.1292 39.0712 96.3864 39.4156V38.5368H97.073V43.0142C97.073 43.9501 96.8328 44.6817 96.3524 45.209C95.872 45.7363 95.2096 46 94.3677 46C93.7466 46 93.2129 45.8503 92.7689 45.5487C92.3249 45.247 92.0361 44.8456 91.9075 44.342H92.7276ZM92.2399 41.1781C92.2399 41.8052 92.4437 42.3301 92.8514 42.7529C93.259 43.1757 93.749 43.3871 94.3241 43.3871C94.8651 43.3871 95.3431 43.1757 95.758 42.7506C96.1728 42.3254 96.3815 41.8289 96.3815 41.2565C96.3815 40.646 96.1777 40.1235 95.7701 39.6912C95.3625 39.2589 94.8797 39.0427 94.3265 39.0427C93.7563 39.0427 93.2662 39.2494 92.8562 39.6603C92.4462 40.0712 92.2399 40.5772 92.2399 41.1781Z" fill="white"/>
<path d="M98.8784 37.9121H98.1748V36.8052H98.8784V37.9121ZM98.1772 43.9049V38.5415H98.8808V43.9049H98.1772Z" fill="white"/>
<path d="M100.013 38.5391H100.695V39.1496C100.911 38.9049 101.161 38.7244 101.445 38.608C101.729 38.4916 102.054 38.4323 102.418 38.4323C102.82 38.4323 103.177 38.5059 103.49 38.6508C103.803 38.798 104.053 39.0071 104.235 39.2802C104.361 39.4726 104.451 39.6983 104.507 39.9548C104.562 40.2137 104.589 40.5938 104.589 41.0973V43.9002H103.898V40.8954C103.898 40.2612 103.774 39.8004 103.526 39.5154C103.279 39.228 102.883 39.0855 102.337 39.0855C102.02 39.0855 101.738 39.1472 101.498 39.2731C101.258 39.399 101.066 39.5771 100.928 39.8123C100.841 39.9596 100.78 40.1258 100.746 40.3111C100.712 40.4964 100.693 40.8242 100.693 41.2897V43.8978H100.011V38.5391H100.013Z" fill="white"/>
<path d="M111.082 41.4418H106.135C106.179 42.0262 106.395 42.4965 106.783 42.8575C107.171 43.2186 107.656 43.3967 108.236 43.3967C108.649 43.3967 109.017 43.2922 109.347 43.0832C109.677 42.8742 109.93 42.5844 110.109 42.2114H110.905C110.653 42.8053 110.298 43.2613 109.842 43.5772C109.386 43.8932 108.857 44.0547 108.256 44.0547C107.457 44.0547 106.785 43.7768 106.235 43.2209C105.684 42.6651 105.407 41.9977 105.407 41.2162C105.407 40.4015 105.677 39.7269 106.218 39.1924C106.756 38.6604 107.448 38.392 108.287 38.392C109.11 38.392 109.782 38.6699 110.301 39.2233C110.82 39.7791 111.08 40.4989 111.08 41.3872V41.4418H111.082ZM110.303 40.8409C110.17 40.2447 109.927 39.7958 109.571 39.4941C109.214 39.1924 108.753 39.0428 108.18 39.0428C107.649 39.0428 107.2 39.2043 106.831 39.5297C106.463 39.8528 106.237 40.2922 106.155 40.8433H110.303V40.8409Z" fill="white"/>
<path d="M117.262 41.4418H112.315C112.358 42.0262 112.574 42.4965 112.963 42.8575C113.351 43.2186 113.836 43.3967 114.416 43.3967C114.828 43.3967 115.197 43.2922 115.527 43.0832C115.857 42.8742 116.109 42.5844 116.289 42.2114H117.085C116.832 42.8053 116.478 43.2613 116.022 43.5772C115.566 43.8932 115.037 44.0547 114.435 44.0547C113.637 44.0547 112.965 43.7768 112.414 43.2209C111.863 42.6651 111.587 41.9977 111.587 41.2162C111.587 40.4015 111.856 39.7269 112.397 39.1924C112.936 38.6604 113.627 38.392 114.467 38.392C115.289 38.392 115.961 38.6699 116.481 39.2233C117 39.7791 117.259 40.4989 117.259 41.3872V41.4418H117.262ZM116.485 40.8409C116.352 40.2447 116.109 39.7958 115.753 39.4941C115.396 39.1924 114.935 39.0428 114.363 39.0428C113.831 39.0428 113.382 39.2043 113.014 39.5297C112.645 39.8528 112.419 40.2922 112.337 40.8433H116.485V40.8409Z" fill="white"/>
<path d="M118.771 43.9049H118.058V38.5415H118.72V39.1615C118.892 38.9239 119.081 38.7505 119.285 38.6389C119.489 38.5273 119.727 38.4703 120.001 38.4631L120.006 39.209C119.564 39.247 119.249 39.3776 119.057 39.5962C118.866 39.8147 118.771 40.1734 118.771 40.6674V43.9049Z" fill="white"/>
<path d="M121.333 37.9121H120.629V36.8052H121.333V37.9121ZM120.629 43.9049V38.5415H121.333V43.9049H120.629Z" fill="white"/>
<path d="M122.468 38.5391H123.15V39.1496C123.366 38.9049 123.616 38.7244 123.9 38.608C124.184 38.4916 124.509 38.4323 124.873 38.4323C125.275 38.4323 125.632 38.5059 125.945 38.6508C126.258 38.798 126.508 39.0071 126.69 39.2802C126.816 39.4726 126.906 39.6983 126.962 39.9548C127.017 40.2137 127.044 40.5938 127.044 41.0973V43.9002H126.353V40.8954C126.353 40.2612 126.229 39.8004 125.981 39.5154C125.734 39.228 125.338 39.0855 124.793 39.0855C124.475 39.0855 124.193 39.1472 123.953 39.2731C123.713 39.399 123.521 39.5771 123.383 39.8123C123.296 39.9596 123.235 40.1258 123.201 40.3111C123.167 40.4964 123.148 40.8242 123.148 41.2897V43.8978H122.466V38.5391H122.468Z" fill="white"/>
<path d="M129.097 44.342C129.204 44.6532 129.395 44.8978 129.674 45.0712C129.953 45.2446 130.293 45.3325 130.691 45.3325C131.314 45.3325 131.817 45.1282 132.193 44.7221C132.569 44.3159 132.758 43.7719 132.758 43.0926V42.9525C132.493 43.3064 132.19 43.5748 131.851 43.7553C131.511 43.9358 131.137 44.0261 130.73 44.0261C129.907 44.0261 129.223 43.7577 128.677 43.2185C128.131 42.6817 127.859 42.0095 127.859 41.2066C127.859 40.4156 128.129 39.7529 128.667 39.2161C129.206 38.6793 129.871 38.4109 130.664 38.4109C131.125 38.4109 131.525 38.4916 131.863 38.6555C132.2 38.8171 132.498 39.0712 132.755 39.4156V38.5368H133.442V43.0142C133.442 43.9501 133.202 44.6817 132.722 45.209C132.241 45.7363 131.579 46 130.737 46C130.116 46 129.582 45.8503 129.138 45.5487C128.694 45.247 128.405 44.8456 128.277 44.342H129.097ZM128.609 41.1781C128.609 41.8052 128.813 42.3301 129.22 42.7529C129.628 43.1757 130.118 43.3871 130.693 43.3871C131.234 43.3871 131.712 43.1757 132.127 42.7506C132.542 42.3254 132.751 41.8289 132.751 41.2565C132.751 40.646 132.547 40.1235 132.139 39.6912C131.732 39.2589 131.249 39.0427 130.696 39.0427C130.125 39.0427 129.635 39.2494 129.225 39.6603C128.815 40.0712 128.609 40.5772 128.609 41.1781Z" fill="white"/>
<path d="M127.367 32.5772V31.8646H128.311C127.986 31.6603 127.726 31.3658 127.532 30.9834C127.338 30.601 127.241 30.1948 127.241 29.7649C127.241 28.9121 127.53 28.2067 128.11 27.6461C128.687 27.0855 129.41 26.8076 130.279 26.8076C131.126 26.8076 131.839 27.0832 132.419 27.6366C132.999 28.19 133.29 28.8789 133.29 29.7079C133.29 30.1663 133.198 30.5796 133.018 30.9478C132.839 31.3159 132.572 31.62 132.227 31.8646H132.625H133.484H135.005V32.5772H127.367ZM130.213 31.8622C130.871 31.8622 131.431 31.6508 131.9 31.2257C132.365 30.8005 132.601 30.3017 132.601 29.7269C132.601 29.1354 132.38 28.6271 131.938 28.2019C131.497 27.7767 130.953 27.5653 130.31 27.5653C129.636 27.5653 129.071 27.7791 128.614 28.2043C128.158 28.6295 127.93 29.1473 127.93 29.753C127.93 30.3112 128.158 30.8029 128.617 31.2257C129.073 31.6508 129.607 31.8622 130.213 31.8622Z" fill="white"/>
<path d="M133.135 25.2091V25.943H127.368V25.259H128.035C127.78 25.0808 127.593 24.886 127.474 24.677C127.356 24.4656 127.292 24.2209 127.285 23.9407L128.088 23.9359C128.129 24.392 128.27 24.7174 128.506 24.9145C128.741 25.1117 129.124 25.2091 129.656 25.2091H133.135Z" fill="white"/>
<path d="M130.257 23.6129C129.41 23.6129 128.687 23.3278 128.085 22.7601C127.483 22.1924 127.183 21.5202 127.183 20.7435C127.183 19.9264 127.479 19.2281 128.068 18.6509C128.658 18.0737 129.364 17.7863 130.181 17.7863C131.04 17.7863 131.775 18.0689 132.384 18.6342C132.993 19.1996 133.297 19.8836 133.297 20.6865C133.297 21.5036 132.998 22.1972 132.404 22.7625C131.809 23.3278 131.091 23.6129 130.257 23.6129ZM130.245 22.8528C130.909 22.8528 131.465 22.6461 131.914 22.2304C132.363 21.8148 132.588 21.3017 132.588 20.6865C132.588 20.0808 132.363 19.5725 131.914 19.1616C131.465 18.7506 130.904 18.5464 130.232 18.5464C129.551 18.5464 128.99 18.7554 128.551 19.1711C128.112 19.5867 127.893 20.114 127.893 20.7554C127.893 21.3302 128.119 21.8243 128.57 22.2352C129.024 22.6485 129.582 22.8528 130.245 22.8528Z" fill="white"/>
<path d="M126.69 16.2019V16.9264H125.499V16.2019H126.69ZM127.367 16.2019H133.156C133.855 16.2019 134.335 16.2969 134.597 16.4869C134.859 16.677 134.99 17.0024 134.99 17.4656V17.62H134.304C134.304 17.3492 134.253 17.1663 134.149 17.0713C134.044 16.9763 133.751 16.9264 133.265 16.9264H127.367V16.2019Z" fill="white"/>
<path d="M130.488 9.49163V14.589C131.116 14.5439 131.623 14.323 132.009 13.9216C132.397 13.5201 132.589 13.0213 132.589 12.4227C132.589 11.9976 132.477 11.6175 132.252 11.2779C132.028 10.9382 131.715 10.6769 131.315 10.4916V9.66978C131.953 9.92869 132.443 10.2945 132.785 10.7648C133.128 11.2351 133.297 11.7814 133.297 12.399C133.297 13.2208 132.999 13.9144 132.4 14.4821C131.8 15.0498 131.085 15.3349 130.245 15.3349C129.367 15.3349 128.641 15.057 128.069 14.5011C127.496 13.9453 127.21 13.2351 127.21 12.3681C127.21 11.5201 127.508 10.8266 128.105 10.2921C128.702 9.75767 129.478 9.48926 130.432 9.48926H130.488V9.49163ZM129.842 10.2921C129.202 10.4299 128.719 10.6793 128.394 11.0475C128.069 11.4132 127.909 11.8907 127.909 12.4798C127.909 13.0261 128.083 13.4916 128.43 13.8717C128.777 14.2517 129.25 14.4845 129.842 14.57V10.2921Z" fill="white"/>
<path d="M129.139 4.14246C128.719 4.36574 128.409 4.63652 128.207 4.95719C128.006 5.27785 127.906 5.6579 127.906 6.0997C127.906 6.68165 128.132 7.17571 128.583 7.57951C129.034 7.98569 129.593 8.18759 130.255 8.18759C130.917 8.18759 131.473 7.98331 131.919 7.57714C132.366 7.17096 132.589 6.6674 132.589 6.06883C132.589 5.63177 132.48 5.2446 132.259 4.90968C132.038 4.57476 131.73 4.32061 131.33 4.14484V3.34436C131.956 3.56289 132.441 3.90731 132.783 4.37524C133.125 4.84317 133.297 5.39662 133.297 6.0332C133.297 6.8503 133.001 7.54151 132.409 8.10445C131.817 8.6674 131.104 8.95006 130.267 8.95006C129.413 8.95006 128.692 8.66503 128.098 8.09495C127.506 7.52488 127.21 6.8313 127.21 6.01419C127.21 5.40137 127.38 4.86217 127.717 4.39424C128.054 3.92631 128.53 3.57714 129.141 3.34436V4.14246H129.139Z" fill="white"/>
<path d="M133.135 1.7981H128.113V2.87173H127.368V1.7981H125.502V1.07363H127.368V0H128.113V1.07363H133.135V1.7981Z" fill="white"/>
</g>
<defs>
<clipPath id="clip0_892_4715">
<rect width="135" height="46" fill="white"/>
</clipPath>
</defs>
</svg>
