<svg width="82" height="20" viewBox="0 0 82 20" fill="none" xmlns="http://www.w3.org/2000/svg">
<path d="M0.21582 10.1905C0.21582 6.86772 1.17068 4.33862 3.08039 2.60317C5.01109 0.867724 7.76023 0 11.3278 0C14.9164 0 17.6656 0.867724 19.5753 2.60317C21.506 4.33862 22.4713 6.86772 22.4713 10.1905C22.4713 13.5132 21.4535 15.9788 19.4179 17.5873C17.4032 19.1958 14.7065 20 11.3278 20C7.97009 20 5.27341 19.1958 3.23778 17.5873C1.22314 15.9788 0.21582 13.5132 0.21582 10.1905ZM14.098 10.0635C14.098 5.78836 13.1746 3.65079 11.3278 3.65079C9.50206 3.65079 8.58917 5.78836 8.58917 10.0635C8.58917 14.3386 9.50206 16.4762 11.3278 16.4762C13.1746 16.4762 14.098 14.3386 14.098 10.0635Z" fill="#333333"/>
<path d="M37.2371 8.53968C37.9296 8.96296 38.5067 9.56614 38.9684 10.3492C39.4511 11.1323 39.6924 12.1799 39.6924 13.4921C39.6924 14.7831 39.2832 15.9577 38.4647 17.0159C36.9538 19.0053 34.6558 20 31.5709 20C30.2278 20 28.8952 19.8095 27.5731 19.4286C26.272 19.0265 25.3066 18.6243 24.677 18.2222L23.7327 17.6508L25.0863 14.9206C26.5972 15.6614 27.9613 16.0317 29.1785 16.0317C30.3957 16.0317 31.0043 15.6402 31.0043 14.8571C31.0043 14.4127 30.7629 14 30.2803 13.619C29.8186 13.2169 29.2415 12.836 28.5489 12.4762C27.8774 12.1164 27.1953 11.7037 26.5028 11.2381C25.8313 10.7513 25.2542 10.0847 24.7715 9.2381C24.3098 8.37037 24.0789 7.36508 24.0789 6.22222C24.0789 4.19048 24.8449 2.6455 26.3769 1.5873C27.9298 0.5291 29.7976 0 31.9801 0C33.2812 0 34.4984 0.15873 35.6317 0.47619C36.7859 0.79365 37.6043 1.11111 38.087 1.42857L38.8425 1.90476L37.6148 4.60317C36.5445 4.13757 35.4638 3.90476 34.3725 3.90476C33.3022 3.90476 32.7671 4.31746 32.7671 5.14286C32.7671 5.5873 32.9979 5.98942 33.4596 6.34921C33.9423 6.70899 34.5194 7.0582 35.1909 7.39682C35.8835 7.71429 36.5655 8.09524 37.2371 8.53968Z" fill="#333333"/>
<path d="M58.9813 0.444444L59.6109 6.47619L54.5428 5.46032L53.1262 19.6825H46.9879L45.5713 5.46032L40.4718 6.47619L41.1013 0.444444H58.9813Z" fill="#333333"/>
<path d="M74.8906 19.6825L73.6314 16.4762H65.6044L64.4082 19.6825H59.9382L65.2581 0.444444H76.4645L81.7844 19.6825H74.8906ZM72.026 12.3492L69.5392 6L67.1468 12.3492H72.026Z" fill="#333333"/>
</svg>
