<svg width="30" height="30" viewBox="0 0 30 30" fill="none" xmlns="http://www.w3.org/2000/svg">
<path d="M28.2352 21.8382C28.2352 22.4185 28.072 22.9565 27.8105 23.4298L19.4527 14.0785L27.7199 6.84546C28.0415 7.35582 28.2352 7.95532 28.2352 8.60316V21.8382ZM15 15.7765L26.5036 5.7111C26.0315 5.45267 25.4999 5.29419 24.9265 5.29419H5.07345C4.49932 5.29419 3.96757 5.45267 3.49742 5.7111L15 15.7765ZM18.2071 15.1675L15.5443 17.4989C15.3886 17.6345 15.1946 17.7023 15 17.7023C14.8052 17.7023 14.6113 17.6345 14.4555 17.4989L11.7921 15.1674L3.32857 24.6382C3.83588 24.9564 4.43041 25.1471 5.0734 25.1471H24.9265C25.5694 25.1471 26.1642 24.9564 26.6713 24.6382L18.2071 15.1675ZM2.28008 6.8454C1.95854 7.35576 1.76465 7.95526 1.76465 8.60316V21.8383C1.76465 22.4186 1.92711 22.9565 2.18958 23.4298L10.5464 14.077L2.28008 6.8454Z" fill="#11151A"/>
</svg>
