<svg width="30" height="36" viewBox="0 0 30 36" fill="none" xmlns="http://www.w3.org/2000/svg">
<path d="M24.8446 10.4667C24.7378 10.0665 24.521 9.64003 24.3605 9.26666C22.4409 4.65333 18.2466 3 14.8598 3C10.3261 3 5.33268 6.04008 4.66602 12.3064V13.5866C4.66602 13.6401 4.68443 14.12 4.71059 14.3601C5.0843 17.3465 7.44077 20.5203 9.20067 23.5067C11.0941 26.7063 13.0588 29.8538 15.0053 32.9999C16.2055 30.9468 17.4014 28.8667 18.5743 26.8667C18.894 26.2798 19.265 25.6932 19.585 25.1329C19.7983 24.7599 20.2058 24.3869 20.392 24.0398C22.2853 20.5734 25.3328 17.0801 25.3328 13.64V12.2267C25.3329 11.8538 24.8706 10.5471 24.8446 10.4667ZM14.9428 16.8935C13.6101 16.8935 12.1514 16.2271 11.4314 14.3868C11.3241 14.0938 11.3328 13.5068 11.3328 13.453V12.6263C11.3328 10.2803 13.3248 9.21338 15.0578 9.21338C17.1913 9.21338 18.8413 10.9203 18.8413 13.0538C18.8413 15.1872 17.0763 16.8935 14.9428 16.8935Z" fill="#11151A"/>
</svg>
