<svg width="30" height="36" viewBox="0 0 30 36" fill="none" xmlns="http://www.w3.org/2000/svg">
<path d="M22.8086 22.8451C21.8285 21.8775 20.6049 21.8775 19.631 22.8451C18.8881 23.5818 18.1451 24.3185 17.4147 25.0676C17.2149 25.2737 17.0464 25.3174 16.8029 25.18C16.3222 24.9178 15.8103 24.7055 15.3483 24.4184C13.1944 23.0636 11.3902 21.3218 9.79202 19.3616C8.99916 18.3876 8.2937 17.3451 7.8005 16.1714C7.70062 15.9341 7.71935 15.7781 7.91288 15.5845C8.65579 14.8666 9.37998 14.1299 10.1104 13.3933C11.128 12.3694 11.128 11.1707 10.1042 10.1407C9.52357 9.55381 8.94297 8.97946 8.36237 8.39262C7.76305 7.79329 7.16996 7.18772 6.56439 6.59464C5.58424 5.63946 4.36062 5.63946 3.38671 6.60088C2.63755 7.33755 1.91961 8.09295 1.15797 8.81714C0.452508 9.48514 0.0966578 10.303 0.021742 11.2581C-0.0968748 12.8127 0.283947 14.2798 0.820844 15.7094C1.91961 18.6686 3.59273 21.2969 5.6217 23.7067C8.36237 26.9655 11.6337 29.5439 15.4606 31.4043C17.1837 32.2408 18.9692 32.8839 20.9108 32.99C22.2468 33.0649 23.408 32.7278 24.3382 31.6852C24.975 30.9735 25.6929 30.3242 26.3671 29.6438C27.366 28.6324 27.3723 27.4088 26.3796 26.4099C25.1935 25.2175 24.0011 24.0313 22.8086 22.8451Z" fill="#11151A"/>
<path d="M21.6166 17.8713L23.9203 17.478C23.5582 15.3617 22.5593 13.4451 21.0423 11.9218C19.4378 10.3173 17.4088 9.30596 15.1738 8.99381L14.8492 11.31C16.5785 11.5534 18.1518 12.3338 19.3941 13.5762C20.5678 14.7498 21.3357 16.2357 21.6166 17.8713Z" fill="#11151A"/>
<path d="M25.2187 7.85704C22.5591 5.19753 19.1942 3.51817 15.4796 3L15.155 5.31615C18.3638 5.76564 21.2731 7.22026 23.5705 9.51144C25.7493 11.6902 27.1789 14.4434 27.6971 17.4712L30.0008 17.0779C29.3952 13.5694 27.7408 10.3855 25.2187 7.85704Z" fill="#11151A"/>
</svg>
