<svg width="325" height="79" viewBox="0 0 325 79" fill="none" xmlns="http://www.w3.org/2000/svg">
<path d="M0 40.2524C0 27.1275 3.8045 17.1376 11.4135 10.2825C19.1061 3.42751 30.0598 0 44.2744 0C58.5726 0 69.5263 3.42751 77.1353 10.2825C84.8279 17.1376 88.6742 27.1275 88.6742 40.2524C88.6742 53.3773 84.6189 63.1164 76.5082 69.4698C68.4811 75.8233 57.7365 79 44.2744 79C30.8959 79 20.1513 75.8233 12.0406 69.4698C4.01354 63.1164 0 53.3773 0 40.2524ZM55.3116 39.7508C55.3116 22.864 51.6326 14.4206 44.2744 14.4206C36.9999 14.4206 33.3626 22.864 33.3626 39.7508C33.3626 56.6376 36.9999 65.081 44.2744 65.081C51.6326 65.081 55.3116 56.6376 55.3116 39.7508Z" fill="white"/>
<path d="M147.507 33.7317C150.266 35.4037 152.565 37.7862 154.405 40.8794C156.328 43.9725 157.29 48.1106 157.29 53.2937C157.29 58.3931 155.659 63.0328 152.398 67.2127C146.378 75.0709 137.222 79 124.93 79C119.579 79 114.269 78.2476 109.002 76.7429C103.817 75.1545 99.9711 73.5661 97.4627 71.9778L93.7 69.7206L99.0932 58.9365C105.113 61.8624 110.548 63.3254 115.398 63.3254C120.248 63.3254 122.673 61.7788 122.673 58.6857C122.673 56.9302 121.711 55.3 119.788 53.7952C117.948 52.2069 115.649 50.7021 112.89 49.281C110.214 47.8598 107.497 46.2296 104.737 44.3905C102.062 42.4677 99.7621 39.8344 97.8389 36.4905C95.9994 33.063 95.0796 29.0921 95.0796 24.5778C95.0796 16.5524 98.1316 10.4497 104.236 6.26984C110.423 2.08995 117.865 0 126.561 0C131.745 0 136.595 0.626984 141.11 1.88095C145.709 3.13492 148.97 4.38889 150.893 5.64285L153.903 7.52381L149.012 18.1825C144.747 16.3434 140.441 15.4238 136.093 15.4238C131.829 15.4238 129.696 17.054 129.696 20.3143C129.696 22.0698 130.616 23.6582 132.456 25.0794C134.379 26.5005 136.678 27.8799 139.354 29.2175C142.113 30.4714 144.831 31.9762 147.507 33.7317Z" fill="white"/>
<path d="M234.144 1.75556L236.652 25.581L216.459 21.5683L210.815 77.746H186.357L180.713 21.5683L160.395 25.581L162.903 1.75556H234.144Z" fill="white"/>
<path d="M297.532 77.746L292.515 65.081H260.532L255.766 77.746H237.956L259.153 1.75556H303.803L325 77.746H297.532ZM286.119 48.7794L276.21 23.7L266.678 48.7794H286.119Z" fill="white"/>
</svg>
