<svg width="50" height="50" viewBox="0 0 50 50" fill="none" xmlns="http://www.w3.org/2000/svg">
<path d="M36.7589 3.20345C38.3726 3.56959 39.5817 4.62039 40.7832 5.6411C50.7398 14.1052 52.0972 26.958 47.3992 36.3073C43.4226 44.2222 36.6458 48.5533 27.8983 49.7671C13.0124 51.8361 0.944386 39.7983 0.0595813 26.5241C-0.480854 18.4062 2.67881 11.823 8.57834 6.4085C12.9194 2.4235 18.1126 0.51501 23.9468 0.221589C24.5551 0.191495 25.1458 -0.172146 25.7692 0.101211C25.9653 2.44105 25.9351 4.7834 25.7793 7.12325C25.3997 8.75085 25.6837 10.406 25.5932 12.0462C25.5631 12.6105 25.6988 13.2124 25.269 13.6989C24.9849 13.8794 24.7285 13.8042 24.4872 13.6111C24.3414 13.4581 24.2535 13.2675 24.2032 13.0644C23.5496 10.3734 21.1868 9.5609 19.1734 9.58347C16.7879 9.61105 14.6488 11.3766 14.1285 13.576C13.7816 15.0356 14.2366 16.3848 14.7946 17.7014C15.335 18.9754 16.1118 20.1165 16.8357 21.2877C20.0858 26.5392 23.0922 31.9361 26.3172 37.2026C27.8957 39.7807 29.8715 40.6083 32.6692 39.9362C33.6847 39.6929 34.5318 39.2114 35.0747 38.2835C35.3085 37.9374 35.6328 37.6641 35.8414 37.2979C36.1908 36.3023 36.6583 35.3267 36.2913 34.2258C36.2536 33.6515 36.0802 33.0922 36.1229 32.5079C36.1933 32.1693 36.2662 31.8333 36.3517 31.4972C36.5628 29.8596 36.4447 28.2194 36.412 26.5818C36.3919 19.3867 36.4019 12.1917 36.407 4.99908C36.407 4.38214 36.3165 3.73762 36.7589 3.20345Z" fill="#009C66"/>
<path d="M36.7586 3.20336C36.7712 11.0329 36.7837 18.865 36.7963 26.6946C36.462 28.3623 36.8642 30.0576 36.5852 31.7279C36.5299 32.0213 36.6027 32.3599 36.2936 32.5655C35.8235 32.5505 35.6978 32.1567 35.5169 31.8407C32.5457 26.6595 29.3584 21.6086 26.3345 16.46C25.8167 15.5772 25.1707 14.6969 25.3642 13.5584C25.4497 11.4367 25.2586 9.31253 25.4648 7.19589C25.4798 5.25982 25.4849 3.32123 25.5125 1.38516C25.5201 0.94879 25.3667 0.464771 25.7714 0.103638C28.7652 0.314299 31.7011 0.798317 34.4988 1.93187C35.3032 2.25539 36.1025 2.60649 36.7586 3.20336Z" fill="#045F3E"/>
<path d="M35.3488 38.3337C34.1096 40.7262 29.9721 41.2754 27.6797 39.3243C27.2071 38.923 26.737 38.4616 26.4254 37.9349C22.4588 31.2715 18.4546 24.6282 14.6037 17.8995C12.9974 15.0957 13.4599 12.5352 15.4759 10.7095C17.8915 8.52262 22.225 8.92889 23.9343 11.507C24.3089 12.0738 24.5451 12.6932 24.5351 13.3854C25.0529 14.2055 25.2037 15.1033 24.9775 16.0287C24.5879 17.6312 24.9599 19.0757 25.7391 20.4751C27.28 23.2488 29.0471 25.8871 30.6332 28.6357C32.1163 31.2013 33.4686 33.8396 35.0949 36.3198C35.4996 36.9393 35.6806 37.6089 35.3488 38.3337Z" fill="#FDFBFB"/>
</svg>
